<?xml version="1.0" standalone="no"?>
 <!DOCTYPE svg PUBLIC "-//W3C//DTD SVG 1.1//EN" 
 "http://www.w3.org/Graphics/SVG/1.1/DTD/svg11.dtd"> 
<svg
  xmlns:svg="http://www.w3.org/2000/svg"
  xmlns="http://www.w3.org/2000/svg"
  xmlns:xlink="http://www.w3.org/1999/xlink"
  version="1.1"
  width="297.0022mm" height="210.0072mm" viewBox="0.0000 0.0000 297.0022 210.0072">
<title>SVG Image created as simpleCh552-F_Cu.svg date 2026/01/02 19:29:18 </title>
  <desc>Image generated by PCBNEW </desc>
<g style="fill:#000000; fill-opacity:1.0000;stroke:#000000; stroke-opacity:1.0000;
stroke-linecap:round; stroke-linejoin:round;"
 transform="translate(0 0) scale(1 1)">
<path style="fill:#000000; fill-opacity:1.0000; stroke:none;fill-rule:evenodd;"
d="M 179.6300,55.2200
179.1300,55.2200
179.1300,54.8200
179.6300,54.8200
Z" /> 
<path style="fill:#000000; fill-opacity:1.0000; stroke:none;fill-rule:evenodd;"
d="M 179.6300,56.0200
179.1300,56.0200
179.1300,55.6200
179.6300,55.6200
Z" /> 
</g>
<g style="fill:none; 
stroke:#000000; stroke-width:0.5600; stroke-opacity:1; 
stroke-linecap:round; stroke-linejoin:round;">
<path d="M169.6050 64.1300
L168.4150 64.1300
" />
<path d="M169.6050 65.4000
L168.4150 65.4000
" />
<path d="M169.6050 66.6700
L168.4150 66.6700
" />
<path d="M169.6050 67.9500
L168.4150 67.9500
" />
<path d="M169.6050 69.2100
L168.4150 69.2100
" />
<path d="M169.6050 70.4800
L168.4150 70.4800
" />
<path d="M169.6050 71.7500
L168.4150 71.7500
" />
<path d="M169.6050 73.0200
L168.4150 73.0200
" />
<path d="M175.3450 73.0200
L174.1550 73.0200
" />
<path d="M175.3450 71.7500
L174.1550 71.7500
" />
<path d="M175.3450 70.4800
L174.1550 70.4800
" />
<path d="M175.3450 69.2100
L174.1550 69.2100
" />
<path d="M175.3450 67.9500
L174.1550 67.9500
" />
<path d="M175.3450 66.6700
L174.1550 66.6700
" />
<path d="M175.3450 65.4000
L174.1550 65.4000
" />
<path d="M175.3450 64.1300
L174.1550 64.1300
" />
<path style="fill:#000000; fill-opacity:1.0000; stroke:none;fill-rule:evenodd;"
d="M 179.6700,64.4800
179.7657,64.4990
179.8468,64.5532
179.9010,64.6343
179.9200,64.7300
179.9200,65.2300
179.9010,65.3257
179.8468,65.4068
179.7657,65.4610
179.6700,65.4800
178.7200,65.4800
178.6243,65.4610
178.5432,65.4068
178.4890,65.3257
178.4700,65.2300
178.4700,64.7300
178.4890,64.6343
178.5432,64.5532
178.6243,64.4990
178.7200,64.4800
Z" /> 
<path style="fill:#000000; fill-opacity:1.0000; stroke:none;fill-rule:evenodd;"
d="M 179.6700,66.3800
179.7657,66.3990
179.8468,66.4532
179.9010,66.5343
179.9200,66.6300
179.9200,67.1300
179.9010,67.2257
179.8468,67.3068
179.7657,67.3610
179.6700,67.3800
178.7200,67.3800
178.6243,67.3610
178.5432,67.3068
178.4890,67.2257
178.4700,67.1300
178.4700,66.6300
178.4890,66.5343
178.5432,66.4532
178.6243,66.3990
178.7200,66.3800
Z" /> 
<path style="fill:#000000; fill-opacity:1.0000; stroke:none;fill-rule:evenodd;"
d="M 184.7850,58.9650
184.7660,59.0607
184.7118,59.1418
184.6307,59.1960
184.5350,59.2150
183.7850,59.2150
183.6893,59.1960
183.6082,59.1418
183.5540,59.0607
183.5350,58.9650
183.5350,57.7150
183.5540,57.6193
183.6082,57.5382
183.6893,57.4840
183.7850,57.4650
184.5350,57.4650
184.6307,57.4840
184.7118,57.5382
184.7660,57.6193
184.7850,57.7150
Z" /> 
<path style="fill:#000000; fill-opacity:1.0000; stroke:none;fill-rule:evenodd;"
d="M 181.9850,58.9650
181.9660,59.0607
181.9118,59.1418
181.8307,59.1960
181.7350,59.2150
180.9850,59.2150
180.8893,59.1960
180.8082,59.1418
180.7540,59.0607
180.7350,58.9650
180.7350,57.7150
180.7540,57.6193
180.8082,57.5382
180.8893,57.4840
180.9850,57.4650
181.7350,57.4650
181.8307,57.4840
181.9118,57.5382
181.9660,57.6193
181.9850,57.7150
Z" /> 
<path style="fill:#000000; fill-opacity:1.0000; stroke:none;fill-rule:evenodd;"
d="M 166.2550,60.5900
166.2550,59.5900
167.5050,59.5900
167.5050,60.5900
Z" /> 
<path style="fill:#000000; fill-opacity:1.0000; stroke:none;fill-rule:evenodd;"
d="M 174.0050,60.5900
174.0050,59.5900
175.2550,59.5900
175.2550,60.5900
Z" /> 
<path style="fill:#000000; fill-opacity:1.0000; stroke:none;fill-rule:evenodd;"
d="M 177.0250,64.7500
177.1111,64.7671
177.1841,64.8159
177.2329,64.8889
177.2500,64.9750
177.2500,65.4250
177.2329,65.5111
177.1841,65.5841
177.1111,65.6329
177.0250,65.6500
176.5250,65.6500
176.4389,65.6329
176.3659,65.5841
176.3171,65.5111
176.3000,65.4250
176.3000,64.9750
176.3171,64.8889
176.3659,64.8159
176.4389,64.7671
176.5250,64.7500
Z" /> 
<path style="fill:#000000; fill-opacity:1.0000; stroke:none;fill-rule:evenodd;"
d="M 177.0250,66.3000
177.1111,66.3171
177.1841,66.3659
177.2329,66.4389
177.2500,66.5250
177.2500,66.9750
177.2329,67.0611
177.1841,67.1341
177.1111,67.1829
177.0250,67.2000
176.5250,67.2000
176.4389,67.1829
176.3659,67.1341
176.3171,67.0611
176.3000,66.9750
176.3000,66.5250
176.3171,66.4389
176.3659,66.3659
176.4389,66.3171
176.5250,66.3000
Z" /> 
<path style="fill:#000000; fill-opacity:1.0000; stroke:none;fill-rule:evenodd;"
d="M 179.2300,56.1700
178.7300,56.1700
178.7300,56.1657
178.6647,56.1657
178.5387,56.1319
178.4256,56.0667
178.3333,55.9744
178.2681,55.8613
178.2343,55.7353
178.2343,55.6700
178.2300,55.6700
178.2300,55.1700
178.2343,55.1700
178.2343,55.1047
178.2681,54.9787
178.3333,54.8656
178.4256,54.7733
178.5387,54.7081
178.6647,54.6743
178.7300,54.6743
178.7300,54.6700
179.2300,54.6700
Z" /> 
<path style="fill:#000000; fill-opacity:1.0000; stroke:none;fill-rule:evenodd;"
d="M 180.0300,54.6743
180.0953,54.6743
180.2213,54.7081
180.3344,54.7733
180.4267,54.8656
180.4919,54.9787
180.5257,55.1047
180.5257,55.1700
180.5300,55.1700
180.5300,55.6700
180.5257,55.6700
180.5257,55.7353
180.4919,55.8613
180.4267,55.9744
180.3344,56.0667
180.2213,56.1319
180.0953,56.1657
180.0300,56.1657
180.0300,56.1700
179.5300,56.1700
179.5300,54.6700
180.0300,54.6700
Z" /> 
<path style="fill:#000000; fill-opacity:1.0000; stroke:none;fill-rule:evenodd;"
d="M 176.4350,63.0000
176.4521,62.9139
176.5009,62.8409
176.5739,62.7921
176.6600,62.7750
177.1100,62.7750
177.1961,62.7921
177.2691,62.8409
177.3179,62.9139
177.3350,63.0000
177.3350,63.5000
177.3179,63.5861
177.2691,63.6591
177.1961,63.7079
177.1100,63.7250
176.6600,63.7250
176.5739,63.7079
176.5009,63.6591
176.4521,63.5861
176.4350,63.5000
Z" /> 
<path style="fill:#000000; fill-opacity:1.0000; stroke:none;fill-rule:evenodd;"
d="M 177.9850,63.0000
178.0021,62.9139
178.0509,62.8409
178.1239,62.7921
178.2100,62.7750
178.6600,62.7750
178.7461,62.7921
178.8191,62.8409
178.8679,62.9139
178.8850,63.0000
178.8850,63.5000
178.8679,63.5861
178.8191,63.6591
178.7461,63.7079
178.6600,63.7250
178.2100,63.7250
178.1239,63.7079
178.0509,63.6591
178.0021,63.5861
177.9850,63.5000
Z" /> 
</g>
<g style="fill:#000000; fill-opacity:1.0000; stroke:none;">
<circle cx="196.3750" cy="54.2200" r="1.1700" /> 
</g>
<g style="fill:#000000; fill-opacity:1.0000; stroke:none;">
<circle cx="191.3750" cy="54.2200" r="1.1700" /> 
</g>
<g style="fill:#000000; fill-opacity:1.0000; stroke:none;">
<circle cx="186.3750" cy="54.2200" r="1.1700" /> 
<path style="fill:#000000; fill-opacity:1.0000; stroke:none;fill-rule:evenodd;"
d="M 176.7300,61.6450
176.6343,61.6260
176.5532,61.5718
176.4990,61.4907
176.4800,61.3950
176.4800,60.7700
176.4990,60.6743
176.5532,60.5932
176.6343,60.5390
176.7300,60.5200
177.9800,60.5200
178.0757,60.5390
178.1568,60.5932
178.2110,60.6743
178.2300,60.7700
178.2300,61.3950
178.2110,61.4907
178.1568,61.5718
178.0757,61.6260
177.9800,61.6450
Z" /> 
<path style="fill:#000000; fill-opacity:1.0000; stroke:none;fill-rule:evenodd;"
d="M 176.7300,58.7200
176.6343,58.7010
176.5532,58.6468
176.4990,58.5657
176.4800,58.4700
176.4800,57.8450
176.4990,57.7493
176.5532,57.6682
176.6343,57.6140
176.7300,57.5950
177.9800,57.5950
178.0757,57.6140
178.1568,57.6682
178.2110,57.7493
178.2300,57.8450
178.2300,58.4700
178.2110,58.5657
178.1568,58.6468
178.0757,58.7010
177.9800,58.7200
Z" /> 
</g>
<g style="fill:#000000; fill-opacity:1.0000; stroke:none;">
<circle cx="153.7750" cy="71.7200" r="1.1700" /> 
</g>
<g style="fill:#000000; fill-opacity:1.0000; stroke:none;">
<circle cx="158.7750" cy="71.7200" r="1.1700" /> 
</g>
<g style="fill:#000000; fill-opacity:1.0000; stroke:none;">
<circle cx="163.7750" cy="71.7200" r="1.1700" /> 
<path style="fill:#000000; fill-opacity:1.0000; stroke:none;fill-rule:evenodd;"
d="M 174.8050,54.4900
176.5050,54.4900
176.5050,56.1900
174.8050,56.1900
Z" /> 
</g>
<g style="fill:#000000; fill-opacity:1.0000; stroke:none;">
<circle cx="173.1150" cy="55.3400" r="0.8500" /> 
</g>
<g style="fill:#000000; fill-opacity:1.0000; stroke:none;">
<circle cx="170.5750" cy="55.3400" r="0.8500" /> 
</g>
<g style="fill:#000000; fill-opacity:1.0000; stroke:none;">
<circle cx="168.0350" cy="55.3400" r="0.8500" /> 
</g>
<g style="fill:#000000; fill-opacity:1.0000; stroke:none;">
<circle cx="163.7750" cy="54.2200" r="1.1700" /> 
</g>
<g style="fill:#000000; fill-opacity:1.0000; stroke:none;">
<circle cx="158.7750" cy="54.2200" r="1.1700" /> 
</g>
<g style="fill:#000000; fill-opacity:1.0000; stroke:none;">
<circle cx="153.7750" cy="54.2200" r="1.1700" /> 
<path style="fill:#000000; fill-opacity:1.0000; stroke:none;fill-rule:evenodd;"
d="M 184.8650,59.9175
184.9607,59.9365
185.0418,59.9907
185.0960,60.0718
185.1150,60.1675
185.1150,60.7925
185.0960,60.8882
185.0418,60.9693
184.9607,61.0235
184.8650,61.0425
183.6150,61.0425
183.5193,61.0235
183.4382,60.9693
183.3840,60.8882
183.3650,60.7925
183.3650,60.1675
183.3840,60.0718
183.4382,59.9907
183.5193,59.9365
183.6150,59.9175
Z" /> 
<path style="fill:#000000; fill-opacity:1.0000; stroke:none;fill-rule:evenodd;"
d="M 184.8650,62.8425
184.9607,62.8615
185.0418,62.9157
185.0960,62.9968
185.1150,63.0925
185.1150,63.7175
185.0960,63.8132
185.0418,63.8943
184.9607,63.9485
184.8650,63.9675
183.6150,63.9675
183.5193,63.9485
183.4382,63.8943
183.3840,63.8132
183.3650,63.7175
183.3650,63.0925
183.3840,62.9968
183.4382,62.9157
183.5193,62.8615
183.6150,62.8425
Z" /> 
<path style="fill:#000000; fill-opacity:1.0000; stroke:none;fill-rule:evenodd;"
d="M 186.0900,49.6200
186.0710,49.7157
186.0168,49.7968
185.9357,49.8510
185.8400,49.8700
182.8400,49.8700
182.7443,49.8510
182.6632,49.7968
182.6090,49.7157
182.5900,49.6200
182.5900,48.3200
182.6090,48.2243
182.6632,48.1432
182.7443,48.0890
182.8400,48.0700
185.8400,48.0700
185.9357,48.0890
186.0168,48.1432
186.0710,48.2243
186.0900,48.3200
Z" /> 
<path style="fill:#000000; fill-opacity:1.0000; stroke:none;fill-rule:evenodd;"
d="M 181.0900,49.6200
181.0710,49.7157
181.0168,49.7968
180.9357,49.8510
180.8400,49.8700
177.8400,49.8700
177.7443,49.8510
177.6632,49.7968
177.6090,49.7157
177.5900,49.6200
177.5900,48.3200
177.6090,48.2243
177.6632,48.1432
177.7443,48.0890
177.8400,48.0700
180.8400,48.0700
180.9357,48.0890
181.0168,48.1432
181.0710,48.2243
181.0900,48.3200
Z" /> 
</g>
<g style="fill:#000000; fill-opacity:1.0000; stroke:none;">
<circle cx="186.3750" cy="71.7200" r="1.1700" /> 
</g>
<g style="fill:#000000; fill-opacity:1.0000; stroke:none;">
<circle cx="191.3750" cy="71.7200" r="1.1700" /> 
</g>
<g style="fill:#000000; fill-opacity:1.0000; stroke:none;">
<circle cx="196.3750" cy="71.7200" r="1.1700" /> 
</g>
<g style="fill:none; 
stroke:#000000; stroke-width:0.5000; stroke-opacity:1; 
stroke-linecap:round; stroke-linejoin:round;">
<path d="M177.3550 61.0825
L177.3550 62.7800
" />
<path d="M174.7500 64.1300
L176.0050 64.1300
" />
<path d="M177.3550 62.7800
L176.8850 63.2500
" />
<path d="M176.0050 64.1300
L176.8850 63.2500
" />
<path d="M161.2850 51.7300
L156.9300 51.7300
" />
<path d="M176.5750 65.4000
L176.7750 65.2000
" />
<path d="M158.1800 79.9300
L183.6400 79.9300
" />
<path d="M186.3750 74.4950
L186.3750 74.1100
" />
<path d="M155.9700 52.6900
L155.9700 67.7500
" />
<path d="M179.1950 64.9800
L176.9950 64.9800
" />
<path d="M180.0300 55.4200
L180.6900 55.4200
" />
<path d="M181.0100 55.7400
L181.0100 56.0200
" />
<path d="M155.9700 67.7500
L153.7750 69.9450
" />
<path d="M186.3750 74.1100
L186.3750 71.7200
" />
<path d="M181.0100 56.0200
L181.0100 64.5300
" />
<path d="M193.1960 57.3990
L193.1960 74.5540
" />
<path d="M187.8200 75.9400
L186.3750 74.4950
" />
<path d="M194.6400 48.9700
L196.3750 50.7050
" />
<path d="M193.1960 74.5540
L191.8100 75.9400
" />
<path d="M181.0100 64.5300
L180.5600 64.9800
" />
<path d="M153.7750 71.7200
L153.7750 75.5250
" />
<path d="M180.6900 55.4200
L181.0100 55.7400
" />
<path d="M156.9300 51.7300
L155.9700 52.6900
" />
<path d="M163.7750 54.2200
L161.2850 51.7300
" />
<path d="M183.6400 79.9300
L186.3750 77.1950
" />
<path d="M196.3750 54.2200
L193.1960 57.3990
" />
<path d="M196.3750 50.7050
L196.3750 54.2200
" />
<path d="M153.7750 75.5250
L158.1800 79.9300
" />
<path d="M191.8100 75.9400
L187.8200 75.9400
" />
<path d="M186.3750 77.1950
L186.3750 74.1100
" />
<path d="M180.5600 64.9800
L179.1950 64.9800
" />
<path d="M176.9950 64.9800
L176.7750 65.2000
" />
<path d="M181.0100 52.3000
L181.0100 56.0200
" />
<path d="M153.7750 69.9450
L153.7750 71.7200
" />
<path d="M184.3400 48.9700
L194.6400 48.9700
" />
<path d="M174.7500 65.4000
L176.5750 65.4000
" />
<path d="M184.3400 48.9700
L181.0100 52.3000
" />
<path d="M174.6300 59.3900
L175.8625 58.1575
" />
<path d="M175.8625 58.1575
L177.3550 58.1575
" />
<path d="M174.6300 60.0900
L174.6300 59.3900
" />
<path d="M184.2400 60.4800
L184.2400 58.4200
" />
<path d="M184.2400 58.4200
L184.1600 58.3400
" />
<path d="M166.8800 60.0900
L170.5450 60.0900
" />
<path d="M171.3950 56.1600
L171.3950 59.2400
" />
<path d="M173.6950 69.0300
L173.8750 69.2100
" />
<path d="M173.8750 69.2100
L174.7500 69.2100
" />
<path d="M171.3950 67.9314
L172.4936 69.0300
" />
<path d="M171.3950 59.2400
L171.3950 67.9314
" />
<path d="M170.5750 55.3400
L171.3950 56.1600
" />
<path d="M172.4936 69.0300
L173.6950 69.0300
" />
<path d="M170.5450 60.0900
L171.3950 59.2400
" />
<path d="M172.2950 56.1600
L172.2950 67.5586
" />
<path d="M172.8664 68.1300
L173.6950 68.1300
" />
<path d="M172.2950 67.5586
L172.8664 68.1300
" />
<path d="M173.8750 67.9500
L174.7500 67.9500
" />
<path d="M173.1150 55.3400
L172.2950 56.1600
" />
<path d="M173.6950 68.1300
L173.8750 67.9500
" />
<path d="M191.3750 62.4550
L191.3750 54.2200
" />
<path d="M187.2100 66.6200
L191.3750 62.4550
" />
<path d="M174.7500 73.0200
L175.6600 73.0200
" />
<path d="M182.0600 66.6200
L187.2100 66.6200
" />
<path d="M175.6600 73.0200
L182.0600 66.6200
" />
<path d="M161.4000 65.4000
L158.7750 68.0250
" />
<path d="M158.7750 68.0250
L158.7750 71.7200
" />
<path d="M169.0100 65.4000
L161.4000 65.4000
" />
<path d="M182.5900 68.9300
L190.4500 68.9300
" />
<path d="M168.1500 77.4100
L177.0300 77.4100
" />
<path d="M178.7800 75.6600
L178.7800 72.7400
" />
<path d="M177.0300 77.4100
L178.7800 75.6600
" />
<path d="M166.5900 75.8500
L168.1500 77.4100
" />
<path d="M166.5900 68.2750
L166.5900 75.8500
" />
<path d="M168.1950 66.6700
L166.5900 68.2750
" />
<path d="M191.3750 69.8550
L191.3750 71.7200
" />
<path d="M178.7800 72.7400
L182.5900 68.9300
" />
<path d="M190.4500 68.9300
L191.3750 69.8550
" />
<path d="M169.0100 66.6700
L168.1950 66.6700
" />
<path d="M169.0100 64.1300
L161.5200 64.1300
" />
<path d="M158.7750 61.3850
L158.7750 54.2200
" />
<path d="M161.5200 64.1300
L158.7750 61.3850
" />
<path d="M178.7300 55.4200
L175.7350 55.4200
" />
<path d="M175.6550 55.3400
L175.6550 52.6550
" />
<path d="M175.7350 55.4200
L175.6550 55.3400
" />
<path d="M175.6550 52.6550
L179.3400 48.9700
" />
<path style="fill:#000000; fill-opacity:1.0000; stroke:none;fill-rule:evenodd;"
d="M 156.9293,52.8945
156.9853,52.9364
157.0097,53.0019
157.0100,53.0107
157.0100,55.9400
157.0300,55.9600
157.9005,55.9600
157.9675,55.9797
158.0133,56.0325
158.0245,56.0840
158.0245,61.4589
158.0245,61.4589
158.0245,61.4589
158.0533,61.6039
158.0533,61.6039
158.1099,61.7405
158.1428,61.7897
158.1428,61.7897
158.1920,61.8634
158.1921,61.8634
160.9491,64.6204
160.9826,64.6818
160.9776,64.7515
160.9357,64.8074
160.9303,64.8112
160.9216,64.8170
160.9216,64.8171
158.1920,67.5466
158.1920,67.5466
158.1497,67.6099
158.1497,67.6099
158.1099,67.6695
158.1099,67.6695
158.0533,67.8061
158.0533,67.8061
158.0245,67.9511
158.0245,69.9160
158.0048,69.9830
157.9520,70.0288
157.9005,70.0400
156.9600,70.0400
156.9600,73.3200
156.9800,73.3400
158.3503,73.3400
158.3824,73.3442
158.3955,73.3477
158.4484,73.3619
158.6551,73.3891
158.6593,73.3897
158.6655,73.3905
158.6655,73.3905
158.8845,73.3905
158.8845,73.3905
159.1016,73.3619
159.1566,73.3472
159.1676,73.3442
159.1997,73.3400
160.6300,73.3400
160.6300,71.6105
162.1050,71.6105
162.1050,71.8295
162.1050,71.8295
162.1336,72.0465
162.1902,72.2580
162.2740,72.4602
162.2740,72.4602
162.3835,72.6498
162.3835,72.6498
162.4304,72.7110
163.1740,71.9675
163.1990,72.0279
163.2701,72.1344
163.3606,72.2249
163.4671,72.2960
163.5275,72.3210
162.7840,73.0646
162.7840,73.0646
162.8452,73.1115
162.8452,73.1115
163.0348,73.2210
163.0348,73.2210
163.2370,73.3048
163.4485,73.3614
163.6655,73.3900
163.6655,73.3900
163.8845,73.3900
163.8845,73.3900
164.1015,73.3614
164.3130,73.3048
164.5152,73.2210
164.5152,73.2210
164.7048,73.1115
164.7048,73.1115
164.7660,73.0646
164.0225,72.3210
164.0829,72.2960
164.1894,72.2249
164.2799,72.1344
164.3510,72.0279
164.3760,71.9675
165.1196,72.7110
165.1665,72.6498
165.1665,72.6498
165.2760,72.4602
165.2760,72.4602
165.3598,72.2580
165.4164,72.0465
165.4450,71.8295
165.4450,71.8295
165.4450,71.6105
165.4450,71.6105
165.4164,71.3935
165.3598,71.1820
165.2760,70.9798
165.2760,70.9798
165.1665,70.7902
165.1665,70.7902
165.1196,70.7290
164.3760,71.4725
164.3510,71.4121
164.2799,71.3056
164.1894,71.2151
164.0829,71.1440
164.0225,71.1190
164.7660,70.3754
164.7660,70.3754
164.7048,70.3285
164.7048,70.3285
164.5152,70.2190
164.5152,70.2190
164.3130,70.1352
164.1015,70.0786
163.8845,70.0500
163.8845,70.0500
163.6655,70.0500
163.6655,70.0500
163.4485,70.0786
163.2370,70.1352
163.0348,70.2190
163.0348,70.2190
162.8452,70.3285
162.8452,70.3285
162.7840,70.3754
163.5275,71.1190
163.4671,71.1440
163.3606,71.2151
163.2701,71.3056
163.1990,71.4121
163.1740,71.4725
162.4304,70.7290
162.3835,70.7902
162.3835,70.7902
162.2740,70.9798
162.2740,70.9798
162.1902,71.1820
162.1336,71.3935
162.1050,71.6105
162.1050,71.6105
160.6300,71.6105
160.6300,70.0800
160.5900,70.0400
159.6495,70.0400
159.5825,70.0203
159.5367,69.9675
159.5255,69.9160
159.5255,68.3872
159.5452,68.3202
159.5618,68.2995
161.6745,66.1868
161.7359,66.1533
161.7622,66.1505
167.3538,66.1505
167.4208,66.1702
167.4666,66.2230
167.4765,66.2921
167.4475,66.3557
167.4415,66.3622
166.0071,67.7966
166.0070,67.7966
165.9664,67.8575
165.9664,67.8575
165.9249,67.9195
165.8683,68.0561
165.8683,68.0561
165.8395,68.2011
165.8395,75.9239
165.8683,76.0689
165.8683,76.0689
165.8971,76.1384
165.9249,76.2055
165.9417,76.2306
165.9499,76.2429
166.0070,76.3284
166.0071,76.3284
167.6716,77.9929
167.6716,77.9930
167.7945,78.0751
167.7945,78.0751
167.9311,78.1317
167.9311,78.1317
167.9311,78.1317
167.9311,78.1317
168.0761,78.1605
168.0761,78.1605
177.1039,78.1605
177.2015,78.1411
177.2489,78.1317
177.3855,78.0751
177.4347,78.0422
177.5084,77.9930
179.3630,76.1384
179.4122,76.0647
179.4451,76.0155
179.4685,75.9589
179.5017,75.8789
179.5305,75.7339
179.5305,75.5861
179.5305,73.1022
179.5502,73.0352
179.5668,73.0145
182.8645,69.7168
182.9259,69.6833
182.9522,69.6805
190.0878,69.6805
190.1548,69.7002
190.1755,69.7168
190.3470,69.8883
190.3570,69.8983
190.3904,69.9596
190.3855,70.0293
190.3436,70.0853
190.2781,70.1097
190.2693,70.1100
189.5600,70.1100
189.5600,73.3900
189.5800,73.4100
192.3215,73.4100
192.3885,73.4297
192.4343,73.4825
192.4455,73.5340
192.4455,74.1918
192.4258,74.2588
192.4092,74.2795
191.5355,75.1532
191.4741,75.1867
191.4478,75.1895
188.1822,75.1895
188.1152,75.1698
188.0945,75.1532
187.1618,74.2205
187.1283,74.1591
187.1255,74.1328
187.1255,73.4640
187.1452,73.3970
187.1980,73.3512
187.2495,73.3400
188.3500,73.3400
188.3500,70.0800
188.3100,70.0400
184.6800,70.0400
184.6800,73.3200
184.7000,73.3400
185.5005,73.3400
185.5675,73.3597
185.6133,73.4125
185.6245,73.4640
185.6245,76.8328
185.6048,76.8998
185.5882,76.9205
183.3655,79.1432
183.3041,79.1767
183.2778,79.1795
158.5422,79.1795
158.4752,79.1598
158.4545,79.1432
154.5618,75.2505
154.5283,75.1891
154.5255,75.1628
154.5255,73.4940
154.5452,73.4270
154.5980,73.3812
154.6495,73.3700
155.6400,73.3700
155.6400,70.1100
155.6000,70.0700
155.0107,70.0700
154.9437,70.0503
154.8979,69.9975
154.8880,69.9284
154.9170,69.8648
154.9230,69.8583
156.5529,68.2284
156.5530,68.2284
156.5712,68.2011
156.6051,68.1503
156.6051,68.1503
156.6051,68.1503
156.6351,68.1055
156.6917,67.9689
156.7093,67.8800
156.7205,67.8239
156.7205,53.0522
156.7291,53.0228
156.7357,52.9928
156.7394,52.9878
156.7402,52.9852
156.7568,52.9645
156.7983,52.9230
156.8596,52.8896
Z" /> 
<path style="fill:#000000; fill-opacity:1.0000; stroke:none;fill-rule:evenodd;"
d="M 199.5175,38.4902
199.5633,38.5430
199.5745,38.5945
199.5745,87.3455
199.5548,87.4125
199.5020,87.4583
199.4505,87.4695
150.6995,87.4695
150.6325,87.4498
150.5867,87.3970
150.5755,87.3455
150.5755,70.0700
151.9700,70.0700
151.9700,73.3500
151.9900,73.3700
152.9005,73.3700
152.9675,73.3897
153.0133,73.4425
153.0245,73.4940
153.0245,75.5989
153.0245,75.5989
153.0245,75.5989
153.0533,75.7439
153.0533,75.7439
153.1099,75.8805
153.1099,75.8805
153.1389,75.9239
153.1389,75.9239
153.1920,76.0034
153.1920,76.0034
157.7016,80.5130
157.7244,80.5282
157.7753,80.5622
157.8245,80.5951
157.8811,80.6185
157.9611,80.6517
158.0772,80.6748
158.0965,80.6786
158.1061,80.6805
158.1061,80.6805
183.7139,80.6805
183.8115,80.6611
183.8589,80.6517
183.9955,80.5951
184.0447,80.5622
184.1184,80.5130
186.9580,77.6734
186.9680,77.6584
186.9877,77.6289
186.9877,77.6289
187.0401,77.5505
187.0967,77.4139
187.1255,77.2689
187.1255,76.6062
187.1452,76.5392
187.1980,76.4934
187.2671,76.4835
187.3307,76.5125
187.3372,76.5186
187.3416,76.5229
187.3416,76.5230
187.4645,76.6051
187.4645,76.6051
187.5082,76.6232
187.5211,76.6285
187.6011,76.6617
187.7172,76.6848
187.7404,76.6894
187.7461,76.6905
187.7461,76.6905
191.8839,76.6905
191.9815,76.6711
192.0289,76.6617
192.1655,76.6051
192.2155,76.5717
192.2884,76.5230
193.7790,75.0324
193.8393,74.9420
193.8611,74.9095
193.9177,74.7729
193.9465,74.6279
193.9465,71.6105
194.7050,71.6105
194.7050,71.8295
194.7050,71.8295
194.7336,72.0465
194.7902,72.2580
194.8740,72.4602
194.8740,72.4602
194.9835,72.6498
194.9835,72.6498
195.0304,72.7110
195.7740,71.9675
195.7990,72.0279
195.8701,72.1344
195.9606,72.2249
196.0671,72.2960
196.1275,72.3210
195.3840,73.0646
195.3840,73.0646
195.4452,73.1115
195.4452,73.1115
195.6348,73.2210
195.6348,73.2210
195.8370,73.3048
196.0485,73.3614
196.2655,73.3900
196.2655,73.3900
196.4845,73.3900
196.4845,73.3900
196.7015,73.3614
196.9130,73.3048
197.1152,73.2210
197.1152,73.2210
197.3048,73.1115
197.3048,73.1115
197.3660,73.0646
196.6225,72.3210
196.6829,72.2960
196.7894,72.2249
196.8799,72.1344
196.9510,72.0279
196.9760,71.9675
197.7196,72.7110
197.7665,72.6498
197.7665,72.6498
197.8760,72.4602
197.8760,72.4602
197.9598,72.2580
198.0164,72.0465
198.0450,71.8295
198.0450,71.8295
198.0450,71.6105
198.0450,71.6105
198.0164,71.3935
197.9598,71.1820
197.8760,70.9798
197.8760,70.9798
197.7665,70.7902
197.7665,70.7902
197.7196,70.7290
196.9760,71.4725
196.9510,71.4121
196.8799,71.3056
196.7894,71.2151
196.6829,71.1440
196.6225,71.1190
197.3660,70.3754
197.3660,70.3754
197.3048,70.3285
197.3048,70.3285
197.1152,70.2190
197.1152,70.2190
196.9130,70.1352
196.7015,70.0786
196.4845,70.0500
196.4845,70.0500
196.2655,70.0500
196.2655,70.0500
196.0485,70.0786
195.8370,70.1352
195.6348,70.2190
195.6348,70.2190
195.4452,70.3285
195.4452,70.3285
195.3840,70.3754
196.1275,71.1190
196.0671,71.1440
195.9606,71.2151
195.8701,71.3056
195.7990,71.4121
195.7740,71.4725
195.0304,70.7290
194.9835,70.7902
194.9835,70.7902
194.8740,70.9798
194.8740,70.9798
194.7902,71.1820
194.7336,71.3935
194.7050,71.6105
194.7050,71.6105
193.9465,71.6105
193.9465,57.7612
193.9662,57.6942
193.9828,57.6735
194.8610,56.7953
195.7975,55.8589
195.8588,55.8254
195.9173,55.8268
196.0484,55.8619
196.2655,55.8905
196.2655,55.8905
196.4845,55.8905
196.4845,55.8905
196.7016,55.8619
196.8423,55.8242
196.8744,55.8200
198.2400,55.8200
198.2400,52.5600
198.2000,52.5200
197.2495,52.5200
197.1825,52.5003
197.1367,52.4475
197.1255,52.3960
197.1255,50.6311
197.1198,50.6022
197.1198,50.6022
197.0967,50.4861
197.0967,50.4861
197.0488,50.3705
197.0444,50.3600
197.0401,50.3495
197.0401,50.3495
196.9580,50.2266
196.9441,50.2127
196.8534,50.1220
196.4519,49.7205
195.1184,48.3871
195.1184,48.3870
195.0447,48.3378
195.0447,48.3378
194.9955,48.3049
194.8589,48.2483
194.8589,48.2483
194.7139,48.2195
194.7139,48.2195
186.6869,48.2195
186.6198,48.1998
186.5741,48.1470
186.5692,48.1345
186.5665,48.1264
186.5248,48.0007
186.4327,47.8513
186.3087,47.7273
186.1593,47.6352
185.9928,47.5800
185.9928,47.5800
185.8900,47.5695
182.7900,47.5695
182.7900,47.5695
182.6872,47.5800
182.6872,47.5800
182.5207,47.6352
182.5207,47.6352
182.3713,47.7273
182.2473,47.8513
182.1552,48.0007
182.1552,48.0007
182.1000,48.1672
182.1000,48.1672
182.1000,48.1672
182.0895,48.2700
182.0895,49.6700
182.0895,49.6700
182.1000,49.7728
182.1000,49.7728
182.1108,49.8055
182.1552,49.9393
182.1552,49.9393
182.1552,49.9393
182.1625,49.9512
182.1809,50.0186
182.1600,50.0853
182.1446,50.1040
180.4270,51.8216
180.4270,51.8216
180.3778,51.8953
180.3778,51.8953
180.3449,51.9445
180.3449,51.9445
180.2883,52.0811
180.2883,52.0811
180.2595,52.2261
180.2595,54.0447
180.2398,54.1117
180.1870,54.1574
180.1193,54.1676
180.0958,54.1645
180.0958,54.1645
180.0958,54.1645
179.5300,54.1645
179.5300,54.1645
179.4581,54.1696
179.4207,54.1806
179.3682,54.1844
179.2300,54.1645
178.6642,54.1645
178.6642,54.1645
178.5333,54.1817
178.4062,54.2158
178.2843,54.2663
178.2842,54.2663
178.1703,54.3321
178.1702,54.3321
178.0656,54.4125
178.0655,54.4125
177.9725,54.5055
177.9725,54.5056
177.8921,54.6102
177.8899,54.6136
177.8884,54.6126
177.8432,54.6557
177.7863,54.6695
177.1295,54.6695
177.0625,54.6498
177.0167,54.5970
177.0055,54.5455
177.0055,54.4421
177.0055,54.4421
177.0023,54.4125
176.9991,54.3825
176.9978,54.3791
176.9488,54.2477
176.9488,54.2477
176.8625,54.1325
176.8625,54.1325
176.7473,54.0462
176.7473,54.0462
176.6125,53.9959
176.6125,53.9959
176.5529,53.9895
176.5529,53.9895
176.5529,53.9895
176.5529,53.9895
176.5295,53.9895
176.4625,53.9698
176.4167,53.9170
176.4055,53.8655
176.4055,53.0172
176.4252,52.9502
176.4418,52.9296
178.9645,50.4068
179.0259,50.3733
179.0522,50.3705
180.8900,50.3705
180.8900,50.3705
180.9928,50.3600
181.1593,50.3048
181.3087,50.2127
181.4327,50.0887
181.5248,49.9393
181.5800,49.7728
181.5905,49.6700
181.5905,48.2700
181.5883,48.2483
181.5800,48.1672
181.5800,48.1672
181.5692,48.1345
181.5248,48.0007
181.4327,47.8513
181.3087,47.7273
181.1593,47.6352
180.9928,47.5800
180.9928,47.5800
180.8900,47.5695
177.7900,47.5695
177.7900,47.5695
177.6872,47.5800
177.6872,47.5800
177.5207,47.6352
177.5207,47.6352
177.3713,47.7273
177.2473,47.8513
177.1552,48.0007
177.1552,48.0007
177.1000,48.1672
177.1000,48.1672
177.1000,48.1672
177.0895,48.2700
177.0895,49.6700
177.0895,49.6700
177.1000,49.7728
177.1000,49.7728
177.1552,49.9393
177.1552,49.9393
177.1625,49.9512
177.1809,50.0186
177.1600,50.0853
177.1446,50.1040
175.0720,52.1766
175.0720,52.1766
175.0390,52.2261
175.0390,52.2261
174.9899,52.2995
174.9899,52.2995
174.9333,52.4361
174.9333,52.4361
174.9045,52.5811
174.9045,53.8655
174.8848,53.9325
174.8320,53.9783
174.7805,53.9895
174.7571,53.9895
174.7571,53.9895
174.6975,53.9959
174.5627,54.0462
174.5627,54.0462
174.4475,54.1325
174.4475,54.1325
174.3612,54.2477
174.3612,54.2477
174.3122,54.3791
174.2703,54.4350
174.2049,54.4594
174.1366,54.4446
174.1083,54.4234
173.9948,54.3099
173.8228,54.1850
173.6334,54.0884
173.6334,54.0884
173.6334,54.0884
173.4312,54.0228
173.4312,54.0228
173.4312,54.0228
173.2700,53.9972
173.2213,53.9895
173.0087,53.9895
172.9600,53.9972
172.7988,54.0228
172.5966,54.0884
172.4072,54.1850
172.2352,54.3099
172.0849,54.4602
171.9599,54.6322
171.9555,54.6409
171.9075,54.6917
171.8397,54.7085
171.7736,54.6860
171.7345,54.6409
171.7301,54.6322
171.6051,54.4602
171.4548,54.3099
171.2828,54.1850
171.0934,54.0884
171.0934,54.0884
171.0934,54.0884
170.8912,54.0228
170.8912,54.0228
170.8912,54.0228
170.7300,53.9972
170.6813,53.9895
170.4687,53.9895
170.4200,53.9972
170.2588,54.0228
170.0566,54.0884
169.8672,54.1850
169.6952,54.3099
169.5449,54.4602
169.4199,54.6322
169.4152,54.6415
169.3672,54.6923
169.2994,54.7091
169.2333,54.6865
169.1942,54.6415
169.1896,54.6325
169.1503,54.5783
169.1503,54.5783
168.5180,55.2106
168.5009,55.1470
168.4351,55.0330
168.3420,54.9399
168.2280,54.8741
168.1644,54.8570
168.7967,54.2247
168.7425,54.1854
168.5532,54.0889
168.3511,54.0232
168.1412,53.9900
167.9288,53.9900
167.7189,54.0232
167.7189,54.0232
167.5168,54.0889
167.3274,54.1854
167.2733,54.2247
167.2733,54.2247
167.9056,54.8570
167.8420,54.8741
167.7280,54.9399
167.6349,55.0330
167.5691,55.1470
167.5520,55.2106
166.9197,54.5783
166.9197,54.5783
166.8804,54.6324
166.7839,54.8218
166.7182,55.0239
166.7182,55.0239
166.6850,55.2338
166.6850,55.4462
166.7182,55.6561
166.7182,55.6561
166.7839,55.8582
166.8804,56.0475
166.9197,56.1017
167.5520,55.4694
167.5691,55.5330
167.6349,55.6470
167.7280,55.7401
167.8420,55.8059
167.9056,55.8230
167.2733,56.4553
167.2733,56.4553
167.3274,56.4946
167.5168,56.5911
167.7189,56.6568
167.9288,56.6900
168.1412,56.6900
168.3511,56.6568
168.3511,56.6568
168.5532,56.5911
168.7426,56.4946
168.7967,56.4553
168.7967,56.4553
168.1644,55.8230
168.2280,55.8059
168.3420,55.7401
168.4351,55.6470
168.5009,55.5330
168.5180,55.4694
169.1503,56.1017
169.1503,56.1017
169.1896,56.0476
169.1942,56.0385
169.2422,55.9877
169.3100,55.9709
169.3762,55.9934
169.4152,56.0385
169.4199,56.0478
169.5449,56.2198
169.6952,56.3701
169.8672,56.4950
169.8672,56.4950
169.8672,56.4951
170.0566,56.5916
170.2588,56.6572
170.4687,56.6905
170.5205,56.6905
170.5875,56.7102
170.6333,56.7630
170.6445,56.8145
170.6445,58.8778
170.6248,58.9448
170.6082,58.9655
170.2705,59.3032
170.2091,59.3367
170.1828,59.3395
168.0048,59.3395
167.9377,59.3198
167.9055,59.2898
167.8625,59.2325
167.8625,59.2325
167.8325,59.2100
167.7473,59.1462
167.7473,59.1462
167.6125,59.0959
167.6125,59.0959
167.5529,59.0895
167.5529,59.0895
167.5529,59.0895
167.5529,59.0895
166.2071,59.0895
166.2071,59.0895
166.1475,59.0959
166.0127,59.1462
166.0127,59.1462
165.8975,59.2325
165.8975,59.2325
165.8112,59.3477
165.8112,59.3477
165.7609,59.4825
165.7545,59.5421
165.7545,59.5421
165.7545,59.5421
165.7545,60.6379
165.7545,60.6379
165.7609,60.6975
165.8112,60.8323
165.8112,60.8323
165.8975,60.9475
165.8975,60.9475
166.0127,61.0338
166.0127,61.0338
166.1475,61.0841
166.1475,61.0841
166.1544,61.0848
166.2071,61.0905
167.5529,61.0905
167.6125,61.0841
167.7473,61.0338
167.8625,60.9475
167.8892,60.9119
167.9055,60.8902
167.9614,60.8483
168.0048,60.8405
170.5205,60.8405
170.5875,60.8602
170.6333,60.9130
170.6445,60.9645
170.6445,68.0053
170.6445,68.0053
170.6445,68.0053
170.6733,68.1503
170.6733,68.1503
170.7299,68.2869
170.7299,68.2869
170.7384,68.2995
170.7518,68.3197
170.8120,68.4098
170.8121,68.4098
172.0152,69.6129
172.0152,69.6129
172.0498,69.6361
172.0498,69.6361
172.1381,69.6951
172.1381,69.6951
172.1381,69.6951
172.1682,69.7075
172.1682,69.7075
172.1682,69.7075
172.2747,69.7517
172.3908,69.7748
172.4101,69.7786
172.4197,69.7805
172.4197,69.7805
172.4197,69.7805
172.5675,69.7805
173.3403,69.7805
173.3585,69.7858
173.3774,69.7862
173.4056,69.7997
173.4074,69.8002
173.4092,69.8014
173.4862,69.8528
173.5310,69.9065
173.5397,69.9758
173.5204,70.0248
173.4633,70.1103
173.4045,70.2523
173.4045,70.2523
173.3745,70.4031
173.3745,70.5569
173.4045,70.7077
173.4045,70.7077
173.4633,70.8497
173.4633,70.8497
173.5487,70.9775
173.5487,70.9775
173.5985,71.0273
173.6320,71.0886
173.6270,71.1583
173.5985,71.2027
173.5487,71.2525
173.5487,71.2525
173.4633,71.3803
173.4633,71.3803
173.4045,71.5223
173.4045,71.5223
173.3745,71.6731
173.3745,71.8269
173.4045,71.9777
173.4045,71.9777
173.4633,72.1197
173.4633,72.1197
173.5487,72.2475
173.5487,72.2475
173.5985,72.2973
173.6320,72.3586
173.6270,72.4283
173.5985,72.4727
173.5487,72.5225
173.5487,72.5225
173.4633,72.6503
173.4633,72.6503
173.4045,72.7923
173.4045,72.7923
173.3745,72.9431
173.3745,73.0969
173.4045,73.2477
173.4045,73.2477
173.4633,73.3897
173.4633,73.3897
173.5487,73.5175
173.5487,73.5175
173.6575,73.6263
173.6575,73.6263
173.7853,73.7117
173.7853,73.7117
173.7853,73.7117
173.7853,73.7117
173.8577,73.7417
173.9273,73.7705
173.9273,73.7705
173.9273,73.7705
174.0781,73.8005
174.0781,73.8005
174.0781,73.8005
175.4219,73.8005
175.4219,73.8005
175.4680,73.7913
175.5607,73.7729
175.5849,73.7705
175.7339,73.7705
175.8315,73.7511
175.8789,73.7417
176.0155,73.6851
176.1035,73.6263
176.1384,73.6030
182.3345,67.4068
182.3959,67.3733
182.4222,67.3705
187.2839,67.3705
187.3815,67.3511
187.4289,67.3417
187.5655,67.2851
187.6504,67.2283
187.6884,67.2030
191.9580,62.9334
192.0401,62.8105
192.0967,62.6739
192.0980,62.6670
192.1255,62.5289
192.1255,55.9140
192.1452,55.8470
192.1980,55.8012
192.2495,55.7900
193.2000,55.7900
193.2000,52.5300
193.1600,52.4900
189.5300,52.4900
189.5300,55.7700
189.5500,55.7900
190.5005,55.7900
190.5675,55.8097
190.6133,55.8625
190.6245,55.9140
190.6245,62.0928
190.6048,62.1598
190.5882,62.1805
186.9355,65.8332
186.8741,65.8667
186.8478,65.8695
181.9861,65.8695
181.8411,65.8983
181.8411,65.8983
181.7045,65.9549
181.6819,65.9700
181.5816,66.0370
180.5249,67.0937
180.4636,67.1272
180.4373,67.1300
179.4450,67.1300
179.4450,67.8800
179.4474,67.8824
179.5063,67.8997
179.5521,67.9525
179.5620,68.0216
179.5330,68.0852
179.5270,68.0917
176.2243,71.3943
176.2093,71.4025
176.1975,71.4147
176.1793,71.4189
176.1630,71.4278
176.1460,71.4266
176.1294,71.4305
176.1119,71.4242
176.0933,71.4228
176.0793,71.4125
176.0636,71.4069
176.0439,71.3864
176.0383,71.3823
176.0358,71.3790
175.9513,71.2525
175.8958,71.1970
175.8909,71.1906
175.8810,71.1652
175.8680,71.1414
175.8686,71.1331
175.8656,71.1255
175.8710,71.0988
175.8730,71.0717
175.8782,71.0635
175.8796,71.0570
175.8879,71.0484
175.9015,71.0273
175.9513,70.9775
175.9513,70.9775
176.0367,70.8497
176.0955,70.7077
176.1255,70.5569
176.1255,70.4031
176.1106,70.3285
176.0955,70.2523
176.0955,70.2523
176.0367,70.1103
176.0367,70.1103
176.0365,70.1100
175.9513,69.9825
175.9513,69.9825
175.9015,69.9327
175.8680,69.8714
175.8730,69.8017
175.9015,69.7573
175.9513,69.7075
175.9513,69.7075
175.9852,69.6567
176.0367,69.5797
176.0955,69.4377
176.1255,69.2869
176.1255,69.1331
176.1252,69.1318
176.0955,68.9823
176.0955,68.9823
176.0367,68.8403
176.0367,68.8403
175.9513,68.7125
175.9513,68.7125
175.9065,68.6677
175.8730,68.6064
175.8780,68.5367
175.9065,68.4923
175.9513,68.4475
175.9513,68.4475
176.0367,68.3197
176.0955,68.1777
176.1009,68.1503
176.1255,68.0269
176.1255,68.0269
176.1255,67.8731
176.1255,67.8731
176.1102,67.7965
176.1165,67.7269
176.1593,67.6717
176.2252,67.6484
176.2709,67.6546
176.3774,67.6899
176.4767,67.7000
177.0250,67.7000
177.0733,67.7000
177.0733,67.7000
177.1726,67.6899
177.3335,67.6365
177.3335,67.6365
177.4777,67.5476
177.4777,67.5476
177.5976,67.4277
177.5976,67.4277
177.6865,67.2835
177.6865,67.2835
177.7147,67.1986
177.9719,67.1986
177.9805,67.2827
178.0356,67.4491
178.0356,67.4491
178.1277,67.5983
178.2517,67.7223
178.4009,67.8144
178.4009,67.8144
178.5673,67.8695
178.5673,67.8695
178.6700,67.8800
178.9450,67.8800
178.9450,67.8800
178.9450,67.1300
177.9840,67.1300
177.9719,67.1986
177.7147,67.1986
177.7262,67.1637
177.7487,67.0360
177.7500,67.0233
177.7500,67.0233
177.7500,67.0000
177.0250,67.0000
177.0250,67.7000
176.4767,67.7000
176.5250,67.7000
176.5250,67.7000
176.5250,67.0000
175.7940,67.0000
175.7270,66.9803
175.7052,66.9552
175.6700,66.9200
173.4143,66.9200
173.4638,67.0395
173.5255,67.1318
173.5282,67.1404
173.5342,67.1472
173.5384,67.1733
173.5463,67.1985
173.5439,67.2072
173.5454,67.2161
173.5349,67.2404
173.5279,67.2659
173.5204,67.2736
173.5175,67.2802
173.4913,67.3038
173.4092,67.3586
173.3425,67.3795
173.3403,67.3795
173.2286,67.3795
173.1616,67.3598
173.1409,67.3432
173.0818,67.2841
173.0483,67.2227
173.0455,67.1964
173.0455,59.5421
173.5045,59.5421
173.5045,60.6379
173.5045,60.6379
173.5109,60.6975
173.5612,60.8323
173.5612,60.8323
173.6475,60.9475
173.6475,60.9475
173.7627,61.0338
173.7627,61.0338
173.8975,61.0841
173.8975,61.0841
173.9044,61.0848
173.9571,61.0905
175.3029,61.0905
175.3625,61.0841
175.4973,61.0338
175.6125,60.9475
175.6988,60.8323
175.7491,60.6975
175.7555,60.6379
175.7555,59.5421
175.7491,59.4825
175.7361,59.4478
175.7311,59.3781
175.7646,59.3167
176.0523,59.0290
176.1136,58.9956
176.1833,59.0005
176.2277,59.0290
176.2613,59.0627
176.4107,59.1548
176.5772,59.2100
176.6800,59.2205
178.0300,59.2205
178.1328,59.2100
178.2993,59.1548
178.4487,59.0627
178.5727,58.9387
178.6648,58.7893
178.7200,58.6228
178.7305,58.5200
178.7305,57.7950
178.7218,57.7099
178.7200,57.6922
178.7200,57.6922
178.7110,57.6650
178.6648,57.5257
178.5727,57.3763
178.4487,57.2523
178.2993,57.1602
178.1328,57.1050
178.1328,57.1050
178.0300,57.0945
176.6800,57.0945
176.6800,57.0945
176.5772,57.1050
176.5772,57.1050
176.4107,57.1602
176.4107,57.1602
176.2613,57.2523
176.1430,57.3707
176.0816,57.4042
176.0553,57.4070
175.7886,57.4070
175.6436,57.4358
175.6436,57.4358
175.5070,57.4924
175.5070,57.4924
175.3841,57.5745
175.3841,57.5746
174.0470,58.9116
174.0470,58.9116
173.9978,58.9853
173.9978,58.9853
173.9649,59.0345
173.9628,59.0385
173.9138,59.0883
173.8968,59.0962
173.7627,59.1462
173.7627,59.1462
173.6475,59.2325
173.6475,59.2325
173.5612,59.3477
173.5612,59.3477
173.5109,59.4825
173.5045,59.5421
173.5045,59.5421
173.5045,59.5421
173.0455,59.5421
173.0455,56.8145
173.0652,56.7475
173.1180,56.7017
173.1695,56.6905
173.2213,56.6905
173.2213,56.6905
173.4312,56.6572
173.6334,56.5916
173.8228,56.4951
173.9157,56.4275
173.9948,56.3701
173.9948,56.3701
173.9948,56.3701
174.1083,56.2566
174.1696,56.2231
174.2393,56.2281
174.2953,56.2699
174.3122,56.3009
174.3612,56.4323
174.3612,56.4323
174.4475,56.5475
174.4475,56.5475
174.5627,56.6338
174.5627,56.6338
174.6975,56.6841
174.6975,56.6841
174.7044,56.6848
174.7571,56.6905
176.5529,56.6905
176.6125,56.6841
176.7473,56.6338
176.8625,56.5475
176.9488,56.4323
176.9991,56.2975
177.0008,56.2812
177.0276,56.2167
177.0850,56.1768
177.1241,56.1705
177.7863,56.1705
177.8534,56.1902
177.8886,56.2272
177.8899,56.2264
177.8921,56.2298
177.9725,56.3344
177.9725,56.3344
178.0656,56.4275
178.0718,56.4323
178.1702,56.5079
178.1702,56.5079
178.1702,56.5079
178.1703,56.5079
178.2842,56.5737
178.2843,56.5737
178.2843,56.5737
178.2843,56.5737
178.4062,56.6242
178.5333,56.6583
178.6642,56.6755
178.6642,56.6755
179.2300,56.6755
179.3019,56.6704
179.3220,56.6645
179.3393,56.6594
179.3918,56.6556
179.5300,56.6755
179.5300,56.6755
180.0958,56.6755
180.0958,56.6755
180.1193,56.6724
180.1883,56.6832
180.2406,56.7295
180.2595,56.7953
180.2595,57.4984
180.2532,57.5374
180.2450,57.5622
180.2345,57.6650
180.2345,59.0150
180.2345,59.0150
180.2450,59.1178
180.2532,59.1426
180.2595,59.1816
180.2595,63.9896
180.2398,64.0567
180.1870,64.1024
180.1179,64.1124
180.0704,64.0952
179.9893,64.0452
179.9893,64.0452
179.8228,63.9900
179.8228,63.9900
179.7200,63.9795
179.4364,63.9795
179.3694,63.9598
179.3236,63.9070
179.3137,63.8379
179.3203,63.8157
179.3193,63.8153
179.3749,63.6476
179.3850,63.5483
179.3850,63.5483
179.3850,63.5000
178.5590,63.5000
178.4920,63.4803
178.4462,63.4275
178.4350,63.3760
178.4350,63.2500
178.3090,63.2500
178.2420,63.2303
178.1962,63.1775
178.1850,63.1260
178.1850,63.0000
178.6850,63.0000
179.3850,63.0000
179.3850,62.9517
179.3850,62.9517
179.3749,62.8524
179.3215,62.6915
179.3215,62.6915
179.2326,62.5473
179.2326,62.5473
179.1127,62.4274
179.1127,62.4274
178.9685,62.3385
178.9685,62.3385
178.8076,62.2851
178.7083,62.2750
178.6850,62.2750
178.6850,63.0000
178.1850,63.0000
178.1850,62.2550
178.1755,62.2377
178.1755,62.2377
178.1755,62.2377
178.1777,62.2065
178.1805,62.1680
178.1805,62.1680
178.1805,62.1680
178.1989,62.1435
178.2224,62.1121
178.2224,62.1121
178.2224,62.1121
178.2224,62.1120
178.2577,62.0936
178.2993,62.0798
178.4487,61.9877
178.5727,61.8637
178.6648,61.7143
178.7200,61.5478
178.7305,61.4450
178.7305,60.7200
178.7221,60.6379
178.7200,60.6172
178.7200,60.6172
178.7088,60.5833
178.6648,60.4507
178.5727,60.3013
178.4487,60.1773
178.2993,60.0852
178.1328,60.0300
178.1328,60.0300
178.0300,60.0195
176.6800,60.0195
176.6800,60.0195
176.5772,60.0300
176.5772,60.0300
176.4107,60.0852
176.4107,60.0852
176.2613,60.1773
176.1373,60.3013
176.0452,60.4507
176.0452,60.4507
176.0012,60.5833
176.0012,60.5833
175.9900,60.6172
175.9795,60.7200
175.9795,60.7741
175.9795,60.7741
175.9795,61.4450
175.9795,61.4450
175.9900,61.5478
175.9900,61.5478
176.0086,61.6039
176.0452,61.7143
176.1373,61.8637
176.2613,61.9877
176.4107,62.0798
176.4153,62.0814
176.4728,62.1211
176.4996,62.1856
176.4873,62.2544
176.4398,62.3056
176.4153,62.3168
176.3513,62.3380
176.3513,62.3380
176.2070,62.4270
176.2070,62.4270
176.0870,62.5470
176.0870,62.5470
175.9980,62.6913
175.9980,62.6913
175.9447,62.8523
175.9345,62.9516
175.9345,63.0878
175.9259,63.1172
175.9193,63.1472
175.9156,63.1522
175.9148,63.1548
175.8982,63.1754
175.7304,63.3432
175.6691,63.3767
175.6428,63.3795
175.5849,63.3795
175.5607,63.3771
175.4219,63.3495
175.4219,63.3495
174.0781,63.3495
174.0781,63.3495
173.9273,63.3795
173.9273,63.3795
173.7853,63.4383
173.7853,63.4383
173.6575,63.5237
173.6575,63.5237
173.5487,63.6325
173.5487,63.6325
173.4633,63.7603
173.4633,63.7603
173.4045,63.9023
173.4045,63.9023
173.3745,64.0531
173.3745,64.2069
173.4045,64.3577
173.4045,64.3577
173.4633,64.4997
173.4633,64.4997
173.5487,64.6275
173.5487,64.6275
173.5985,64.6773
173.6320,64.7386
173.6270,64.8083
173.5985,64.8527
173.5487,64.9025
173.5487,64.9025
173.4633,65.0303
173.4633,65.0303
173.4045,65.1723
173.4045,65.1723
173.3745,65.3231
173.3745,65.4769
173.4045,65.6277
173.4045,65.6277
173.4633,65.7697
173.4633,65.7697
173.5487,65.8975
173.5487,65.8975
173.5989,65.9477
173.6324,66.0090
173.6274,66.0787
173.5989,66.1230
173.5491,66.1728
173.5491,66.1728
173.4638,66.3005
173.4143,66.4200
173.4143,66.4200
176.1310,66.4200
176.1980,66.4397
176.2198,66.4648
176.2550,66.5000
177.7321,66.5000
177.7439,66.4175
177.7399,66.3774
177.6865,66.2165
177.6865,66.2165
177.5976,66.0723
177.5976,66.0723
177.5883,66.0630
177.5549,66.0017
177.5598,65.9320
177.5883,65.8877
177.5980,65.8780
177.6338,65.8200
177.6526,65.7894
177.7046,65.7427
177.7582,65.7305
178.1078,65.7305
178.1350,65.7385
178.1630,65.7435
178.1712,65.7491
178.1748,65.7502
178.1874,65.7603
178.1921,65.7635
178.1938,65.7651
178.2513,65.8227
178.2650,65.8311
178.2738,65.8393
178.3096,65.8993
178.3073,65.9692
178.2676,66.0267
178.2547,66.0358
178.2517,66.0377
178.2517,66.0377
178.1277,66.1617
178.0356,66.3109
178.0356,66.3109
177.9900,66.4485
177.9700,66.5882
177.9700,66.6300
180.4200,66.6300
180.4200,66.5800
180.4200,66.5800
180.4095,66.4773
180.3544,66.3109
180.3544,66.3109
180.2623,66.1617
180.1383,66.0377
180.1383,66.0377
180.1353,66.0358
180.1337,66.0340
180.1327,66.0332
180.1328,66.0330
180.0886,65.9839
180.0774,65.9149
180.1052,65.8508
180.1162,65.8393
180.1250,65.8311
180.1387,65.8227
180.1962,65.7652
180.1979,65.7635
180.2272,65.7490
180.2559,65.7333
180.2594,65.7330
180.2605,65.7324
180.2624,65.7326
180.2822,65.7305
180.6339,65.7305
180.7315,65.7111
180.7789,65.7017
180.9155,65.6451
180.9647,65.6122
181.0384,65.5630
181.5930,65.0084
181.6112,64.9811
181.6751,64.8855
181.7317,64.7489
181.7558,64.6275
181.7605,64.6039
181.7605,63.7675
182.8650,63.7675
182.8755,63.8702
182.9306,64.0366
182.9306,64.0366
183.0227,64.1858
183.1467,64.3098
183.2959,64.4019
183.2959,64.4019
183.4623,64.4570
183.4623,64.4570
183.5650,64.4675
183.9900,64.4675
184.4900,64.4675
184.9150,64.4675
184.9150,64.4675
185.0177,64.4570
185.1841,64.4019
185.1841,64.4019
185.3333,64.3098
185.4573,64.1858
185.5494,64.0366
185.5494,64.0366
185.6045,63.8702
185.6045,63.8702
185.6150,63.7675
185.6150,63.7675
185.6150,63.6550
184.4900,63.6550
184.4900,64.4675
183.9900,64.4675
183.9900,64.4675
183.9900,63.6550
182.8650,63.6550
182.8650,63.7675
181.7605,63.7675
181.7605,63.0425
182.8650,63.0425
182.8650,63.1550
183.9900,63.1550
184.4900,63.1550
185.6150,63.1550
185.6150,63.0425
185.6150,63.0425
185.6045,62.9398
185.5494,62.7734
185.5494,62.7734
185.4573,62.6242
185.3333,62.5002
185.1841,62.4081
185.1841,62.4081
185.0177,62.3530
185.0177,62.3530
184.9150,62.3425
184.4900,62.3425
184.4900,63.1550
183.9900,63.1550
183.9900,62.3425
183.5650,62.3425
183.5650,62.3425
183.4623,62.3530
183.2959,62.4081
183.2959,62.4081
183.1467,62.5002
183.0227,62.6242
182.9306,62.7734
182.9306,62.7734
182.8755,62.9398
182.8755,62.9398
182.8650,63.0425
181.7605,63.0425
181.7605,60.1175
182.8645,60.1175
182.8645,60.8425
182.8645,60.8425
182.8750,60.9453
182.8750,60.9453
182.9043,61.0338
182.9302,61.1118
183.0223,61.2612
183.1463,61.3852
183.2957,61.4773
183.4622,61.5325
183.5650,61.5430
184.9150,61.5430
185.0178,61.5325
185.1843,61.4773
185.3337,61.3852
185.4577,61.2612
185.5498,61.1118
185.6050,60.9453
185.6155,60.8425
185.6155,60.1175
185.6050,60.0147
185.5498,59.8482
185.4577,59.6988
185.3337,59.5748
185.2269,59.5090
185.1802,59.4570
185.1690,59.3881
185.1865,59.3383
185.2198,59.2843
185.2750,59.1178
185.2855,59.0150
185.2855,57.6650
185.2750,57.5622
185.2198,57.3957
185.1277,57.2463
185.0037,57.1223
184.9109,57.0651
184.8543,57.0302
184.8543,57.0302
184.8529,57.0297
184.6878,56.9750
184.6878,56.9750
184.5850,56.9645
183.7350,56.9645
183.7350,56.9645
183.6322,56.9750
183.6322,56.9750
183.4657,57.0302
183.4657,57.0302
183.3163,57.1223
183.1923,57.2463
183.1002,57.3957
183.1002,57.3957
183.0723,57.4797
183.0450,57.5622
183.0450,57.5622
183.0450,57.5622
183.0345,57.6650
183.0345,59.0150
183.0345,59.0150
183.0450,59.1178
183.0450,59.1178
183.1002,59.2843
183.1002,59.2843
183.1778,59.4102
183.1962,59.4776
183.1753,59.5442
183.1492,59.5725
183.1463,59.5748
183.0223,59.6988
182.9302,59.8482
182.9302,59.8482
182.8750,60.0147
182.8750,60.0147
182.8750,60.0147
182.8645,60.1175
181.7605,60.1175
181.7605,59.8300
181.7802,59.7629
181.8330,59.7172
181.8719,59.7066
181.8724,59.7066
181.8878,59.7050
182.0543,59.6498
182.2037,59.5577
182.3277,59.4337
182.4198,59.2843
182.4750,59.1178
182.4855,59.0150
182.4855,57.6650
182.4750,57.5622
182.4198,57.3957
182.3277,57.2463
182.2037,57.1223
182.1109,57.0651
182.0543,57.0302
182.0543,57.0302
182.0529,57.0297
181.8878,56.9750
181.8840,56.9746
181.8719,56.9734
181.8072,56.9470
181.7671,56.8898
181.7605,56.8500
181.7605,54.1105
184.7050,54.1105
184.7050,54.3295
184.7050,54.3295
184.7336,54.5465
184.7902,54.7580
184.8740,54.9602
184.8740,54.9602
184.9835,55.1498
184.9835,55.1498
185.0304,55.2110
185.7740,54.4675
185.7990,54.5279
185.8701,54.6344
185.9606,54.7249
186.0671,54.7960
186.1275,54.8210
185.3840,55.5646
185.3840,55.5646
185.4452,55.6115
185.4452,55.6115
185.6348,55.7210
185.6348,55.7210
185.8370,55.8048
186.0485,55.8614
186.2655,55.8900
186.2655,55.8900
186.4845,55.8900
186.4845,55.8900
186.7015,55.8614
186.9130,55.8048
187.1152,55.7210
187.1152,55.7210
187.3048,55.6115
187.3048,55.6115
187.3660,55.5646
186.6225,54.8210
186.6829,54.7960
186.7894,54.7249
186.8799,54.6344
186.9510,54.5279
186.9760,54.4675
187.7196,55.2110
187.7665,55.1498
187.7665,55.1498
187.8760,54.9602
187.8760,54.9602
187.9598,54.7580
188.0164,54.5465
188.0450,54.3295
188.0450,54.3295
188.0450,54.1105
188.0450,54.1105
188.0164,53.8935
187.9598,53.6820
187.8760,53.4798
187.8760,53.4798
187.7665,53.2902
187.7665,53.2902
187.7196,53.2290
186.9760,53.9725
186.9510,53.9121
186.8799,53.8056
186.7894,53.7151
186.6829,53.6440
186.6225,53.6190
187.3660,52.8754
187.3660,52.8754
187.3048,52.8285
187.3048,52.8285
187.1152,52.7190
187.1152,52.7190
186.9130,52.6352
186.7015,52.5786
186.4845,52.5500
186.4845,52.5500
186.2655,52.5500
186.2655,52.5500
186.0485,52.5786
185.8370,52.6352
185.6348,52.7190
185.6348,52.7190
185.4452,52.8285
185.4452,52.8285
185.3840,52.8754
186.1275,53.6190
186.0671,53.6440
185.9606,53.7151
185.8701,53.8056
185.7990,53.9121
185.7740,53.9725
185.0304,53.2290
184.9835,53.2902
184.9835,53.2902
184.8740,53.4798
184.8740,53.4798
184.7902,53.6820
184.7336,53.8935
184.7050,54.1105
184.7050,54.1105
181.7605,54.1105
181.7605,52.6622
181.7802,52.5952
181.7968,52.5746
183.9645,50.4068
184.0259,50.3733
184.0522,50.3705
185.8900,50.3705
185.8900,50.3705
185.9928,50.3600
186.1593,50.3048
186.3087,50.2127
186.4327,50.0887
186.5248,49.9393
186.5692,49.8055
186.6089,49.7481
186.6735,49.7212
186.6869,49.7205
194.2778,49.7205
194.3448,49.7402
194.3655,49.7568
195.5882,50.9795
195.6217,51.0409
195.6245,51.0672
195.6245,52.3960
195.6048,52.4630
195.5520,52.5088
195.5005,52.5200
194.5700,52.5200
194.5700,54.9123
194.5503,54.9793
194.5337,55.0000
192.6130,56.9206
192.6130,56.9206
192.5767,56.9750
192.5767,56.9750
192.5309,57.0435
192.5309,57.0435
192.4743,57.1801
192.4743,57.1801
192.4455,57.3251
192.4455,69.9860
192.4429,69.9947
192.4442,70.0036
192.4333,70.0277
192.4258,70.0530
192.4190,70.0590
192.4152,70.0672
192.3930,70.0815
192.3730,70.0988
192.3625,70.1011
192.3564,70.1050
192.3215,70.1100
192.2495,70.1100
192.1825,70.0903
192.1367,70.0375
192.1255,69.9860
192.1255,69.7811
192.1255,69.7811
192.1146,69.7261
192.0967,69.6361
192.0635,69.5561
192.0611,69.5503
192.0401,69.4995
192.0401,69.4995
191.9639,69.3855
191.9639,69.3855
191.9579,69.3766
190.9284,68.3471
190.9284,68.3471
190.8943,68.3243
190.8384,68.2869
190.8055,68.2649
190.8055,68.2649
190.8055,68.2649
190.6689,68.2083
190.6689,68.2083
190.5239,68.1795
190.5239,68.1795
182.5161,68.1795
182.5161,68.1795
182.4872,68.1852
182.4872,68.1852
182.3711,68.2083
182.3711,68.2083
182.2911,68.2415
182.2911,68.2415
182.2345,68.2649
182.1738,68.3055
182.1116,68.3470
182.1116,68.3471
178.1970,72.2616
178.1970,72.2616
178.1478,72.3353
178.1478,72.3353
178.1149,72.3845
178.1149,72.3845
178.0583,72.5211
178.0583,72.5211
178.0295,72.6661
178.0295,75.2978
178.0098,75.3648
177.9932,75.3855
176.7555,76.6232
176.6941,76.6567
176.6678,76.6595
168.5122,76.6595
168.4452,76.6398
168.4245,76.6232
167.3768,75.5755
167.3433,75.5141
167.3405,75.4878
167.3405,68.6372
167.3602,68.5702
167.3768,68.5496
167.5698,68.3566
167.5837,68.3490
167.5946,68.3374
167.6138,68.3326
167.6311,68.3231
167.6470,68.3243
167.6624,68.3204
167.6811,68.3267
167.7008,68.3281
167.7143,68.3379
167.7286,68.3427
167.7471,68.3617
167.7543,68.3669
167.7576,68.3710
167.8087,68.4475
167.8584,68.4972
167.8627,68.5026
167.8734,68.5288
167.8870,68.5536
167.8865,68.5607
167.8892,68.5673
167.8840,68.5951
167.8820,68.6233
167.8775,68.6303
167.8765,68.6360
167.8683,68.6447
167.8535,68.6677
167.8087,68.7125
167.8087,68.7125
167.7233,68.8403
167.7233,68.8403
167.6645,68.9823
167.6645,68.9823
167.6345,69.1331
167.6345,69.2869
167.6645,69.4377
167.6645,69.4377
167.7233,69.5797
167.7233,69.5797
167.8087,69.7075
167.8087,69.7075
167.8585,69.7573
167.8920,69.8186
167.8870,69.8883
167.8585,69.9327
167.8087,69.9825
167.8087,69.9825
167.7233,70.1103
167.7233,70.1103
167.6645,70.2523
167.6645,70.2523
167.6345,70.4031
167.6345,70.5569
167.6645,70.7077
167.6645,70.7077
167.7233,70.8497
167.7233,70.8497
167.8087,70.9775
167.8087,70.9775
167.8585,71.0273
167.8920,71.0886
167.8870,71.1583
167.8585,71.2027
167.8087,71.2525
167.8087,71.2525
167.7233,71.3803
167.7233,71.3803
167.6645,71.5223
167.6645,71.5223
167.6345,71.6731
167.6345,71.8269
167.6645,71.9777
167.6645,71.9777
167.7233,72.1197
167.7233,72.1197
167.8087,72.2475
167.8087,72.2475
167.8585,72.2973
167.8920,72.3586
167.8870,72.4283
167.8585,72.4727
167.8087,72.5225
167.8087,72.5225
167.7233,72.6503
167.7233,72.6503
167.6645,72.7923
167.6645,72.7923
167.6345,72.9431
167.6345,73.0969
167.6645,73.2477
167.6645,73.2477
167.7233,73.3897
167.7233,73.3897
167.8087,73.5175
167.8087,73.5175
167.9175,73.6263
167.9175,73.6263
168.0453,73.7117
168.0453,73.7117
168.0453,73.7117
168.0453,73.7117
168.1177,73.7417
168.1873,73.7705
168.1873,73.7705
168.1873,73.7705
168.3381,73.8005
168.3381,73.8005
168.3381,73.8005
169.6819,73.8005
169.6819,73.8005
169.7321,73.7905
169.8327,73.7705
169.8327,73.7705
169.8327,73.7705
169.9747,73.7117
170.1025,73.6263
170.1025,73.6263
170.1025,73.6263
170.2113,73.5175
170.2113,73.5175
170.2967,73.3897
170.3555,73.2477
170.3608,73.2210
170.3826,73.1115
170.3855,73.0969
170.3855,72.9431
170.3852,72.9418
170.3555,72.7923
170.3555,72.7923
170.2967,72.6503
170.2967,72.6503
170.2113,72.5225
170.2113,72.5225
170.1615,72.4727
170.1280,72.4114
170.1330,72.3417
170.1615,72.2973
170.2113,72.2475
170.2113,72.2475
170.2967,72.1197
170.3555,71.9777
170.3855,71.8269
170.3855,71.6731
170.3852,71.6718
170.3555,71.5223
170.3555,71.5223
170.2967,71.3803
170.2967,71.3803
170.2113,71.2525
170.2113,71.2525
170.1615,71.2027
170.1280,71.1414
170.1330,71.0717
170.1615,71.0273
170.2113,70.9775
170.2113,70.9775
170.2967,70.8497
170.3555,70.7077
170.3855,70.5569
170.3855,70.4031
170.3706,70.3285
170.3555,70.2523
170.3555,70.2523
170.2967,70.1103
170.2967,70.1103
170.2965,70.1100
170.2113,69.9825
170.2113,69.9825
170.1615,69.9327
170.1280,69.8714
170.1330,69.8017
170.1615,69.7573
170.2113,69.7075
170.2113,69.7075
170.2452,69.6567
170.2967,69.5797
170.3555,69.4377
170.3855,69.2869
170.3855,69.1331
170.3852,69.1318
170.3555,68.9823
170.3555,68.9823
170.2967,68.8403
170.2967,68.8403
170.2113,68.7125
170.2113,68.7125
170.1665,68.6677
170.1330,68.6064
170.1380,68.5367
170.1665,68.4923
170.2113,68.4475
170.2113,68.4475
170.2967,68.3197
170.3555,68.1777
170.3609,68.1503
170.3855,68.0269
170.3855,68.0269
170.3855,67.8731
170.3855,67.8731
170.3555,67.7223
170.3555,67.7223
170.3421,67.6899
170.3249,67.6484
170.2967,67.5803
170.2967,67.5803
170.2748,67.5476
170.2113,67.4525
170.2113,67.4525
170.1565,67.3977
170.1230,67.3364
170.1280,67.2667
170.1565,67.2223
170.2113,67.1675
170.2113,67.1675
170.2967,67.0397
170.3555,66.8977
170.3855,66.7469
170.3855,66.5931
170.3845,66.5882
170.3555,66.4423
170.3555,66.4423
170.2967,66.3003
170.2967,66.3003
170.2113,66.1725
170.2113,66.1725
170.1615,66.1227
170.1280,66.0614
170.1330,65.9917
170.1615,65.9473
170.2113,65.8975
170.2113,65.8975
170.2967,65.7697
170.3555,65.6277
170.3855,65.4769
170.3855,65.3231
170.3852,65.3218
170.3555,65.1723
170.3555,65.1723
170.2967,65.0303
170.2967,65.0303
170.2821,65.0084
170.2113,64.9025
170.2113,64.9025
170.1615,64.8527
170.1280,64.7914
170.1330,64.7217
170.1615,64.6773
170.2113,64.6275
170.2113,64.6275
170.2967,64.4997
170.3555,64.3577
170.3855,64.2069
170.3855,64.0531
170.3729,63.9900
170.3555,63.9023
170.3555,63.9023
170.2967,63.7603
170.2967,63.7603
170.2214,63.6477
170.2113,63.6325
170.2113,63.6325
170.1025,63.5237
170.1025,63.5237
169.9747,63.4383
169.9747,63.4383
169.8327,63.3795
169.8327,63.3795
169.6819,63.3495
169.6819,63.3495
168.3381,63.3495
168.3381,63.3495
168.1993,63.3771
168.1751,63.3795
161.8822,63.3795
161.8152,63.3598
161.7945,63.3432
159.5618,61.1105
159.5283,61.0491
159.5255,61.0228
159.5255,56.0840
159.5452,56.0170
159.5980,55.9712
159.6495,55.9600
160.6800,55.9600
160.6800,52.7000
160.6722,52.6922
160.6616,52.6727
160.6471,52.6560
160.6452,52.6427
160.6387,52.6309
160.6403,52.6088
160.6371,52.5869
160.6427,52.5746
160.6437,52.5612
160.6569,52.5434
160.6661,52.5233
160.6775,52.5160
160.6856,52.5052
160.7063,52.4975
160.7249,52.4855
160.7468,52.4824
160.7510,52.4808
160.7599,52.4805
160.9228,52.4805
160.9898,52.5002
161.0105,52.5168
161.7237,53.2300
161.7572,53.2914
161.7600,53.3177
161.7600,55.8200
161.7800,55.8400
163.3503,55.8400
163.3824,55.8442
163.3926,55.8470
163.4484,55.8619
163.6655,55.8905
163.6655,55.8905
163.8845,55.8905
163.8845,55.8905
164.1016,55.8619
164.1574,55.8470
164.1676,55.8442
164.1997,55.8400
165.4300,55.8400
165.4300,54.4553
165.4304,54.4449
165.4307,54.4420
165.4455,54.3295
165.4455,54.1105
165.4311,54.0008
165.4300,53.9846
165.4300,52.5800
165.3900,52.5400
163.2077,52.5400
163.1407,52.5203
163.1200,52.5037
161.7634,51.1471
161.7634,51.1470
161.6897,51.0978
161.6897,51.0978
161.6405,51.0649
161.5039,51.0083
161.5039,51.0083
161.3589,50.9795
161.3589,50.9795
156.8561,50.9795
156.8561,50.9795
156.7111,51.0083
156.7111,51.0083
156.5745,51.0649
156.5745,51.0649
156.5253,51.0978
156.4516,51.1470
156.4516,51.1471
155.3870,52.2116
155.3870,52.2116
155.3378,52.2853
155.3378,52.2853
155.3049,52.3345
155.3049,52.3345
155.2483,52.4711
155.2483,52.4711
155.2195,52.6161
155.2195,53.1031
155.1998,53.1702
155.1470,53.2159
155.1294,53.2192
154.3760,53.9725
154.3510,53.9121
154.2799,53.8056
154.1894,53.7151
154.0829,53.6440
154.0225,53.6190
154.7660,52.8754
154.7660,52.8754
154.7048,52.8285
154.7048,52.8285
154.5152,52.7190
154.5152,52.7190
154.3130,52.6352
154.1015,52.5786
153.8845,52.5500
153.8845,52.5500
153.6655,52.5500
153.6655,52.5500
153.4485,52.5786
153.2370,52.6352
153.0348,52.7190
153.0348,52.7190
152.8452,52.8285
152.8452,52.8285
152.7840,52.8754
153.5275,53.6190
153.4671,53.6440
153.3606,53.7151
153.2701,53.8056
153.1990,53.9121
153.1740,53.9725
152.4304,53.2290
152.3835,53.2902
152.3835,53.2902
152.2740,53.4798
152.2740,53.4798
152.1902,53.6820
152.1336,53.8935
152.1050,54.1105
152.1050,54.1105
152.1050,54.3295
152.1050,54.3295
152.1336,54.5465
152.1902,54.7580
152.2740,54.9602
152.2740,54.9602
152.3835,55.1498
152.3835,55.1498
152.4304,55.2110
153.1740,54.4675
153.1990,54.5279
153.2701,54.6344
153.3606,54.7249
153.4671,54.7960
153.5275,54.8210
152.7840,55.5646
152.7840,55.5646
152.8452,55.6115
152.8452,55.6115
153.0348,55.7210
153.0348,55.7210
153.2370,55.8048
153.4485,55.8614
153.6655,55.8900
153.6655,55.8900
153.8845,55.8900
153.8845,55.8900
154.1015,55.8614
154.3130,55.8048
154.5152,55.7210
154.5152,55.7210
154.7048,55.6115
154.7048,55.6115
154.7660,55.5646
154.0225,54.8210
154.0829,54.7960
154.1894,54.7249
154.2799,54.6344
154.3510,54.5279
154.3760,54.4675
155.1316,55.2230
155.1556,55.2284
155.2047,55.2781
155.2195,55.3369
155.2195,67.3878
155.1998,67.4548
155.1832,67.4754
153.1920,69.4666
153.1920,69.4666
153.1428,69.5403
153.1428,69.5403
153.1099,69.5895
153.1099,69.5895
153.0533,69.7261
153.0533,69.7261
153.0245,69.8711
153.0245,69.9460
153.0048,70.0130
152.9520,70.0588
152.9005,70.0700
151.9700,70.0700
150.5755,70.0700
150.5755,38.5945
150.5952,38.5275
150.6480,38.4817
150.6995,38.4705
199.4505,38.4705
Z" /> 
</g>
<g style="fill:#FFFFFF; fill-opacity:1.0000; stroke:none;">
<circle cx="196.3750" cy="54.2200" r="0.6500" /> 
</g>
<g style="fill:#FFFFFF; fill-opacity:1.0000; stroke:none;">
<circle cx="191.3750" cy="54.2200" r="0.6500" /> 
</g>
<g style="fill:#FFFFFF; fill-opacity:1.0000; stroke:none;">
<circle cx="186.3750" cy="54.2200" r="0.6500" /> 
</g>
<g style="fill:#FFFFFF; fill-opacity:1.0000; stroke:none;">
<circle cx="153.7750" cy="71.7200" r="0.6500" /> 
</g>
<g style="fill:#FFFFFF; fill-opacity:1.0000; stroke:none;">
<circle cx="158.7750" cy="71.7200" r="0.6500" /> 
</g>
<g style="fill:#FFFFFF; fill-opacity:1.0000; stroke:none;">
<circle cx="163.7750" cy="71.7200" r="0.6500" /> 
</g>
<g style="fill:#FFFFFF; fill-opacity:1.0000; stroke:none;">
<circle cx="175.6550" cy="55.3400" r="0.5000" /> 
</g>
<g style="fill:#FFFFFF; fill-opacity:1.0000; stroke:none;">
<circle cx="173.1150" cy="55.3400" r="0.5000" /> 
</g>
<g style="fill:#FFFFFF; fill-opacity:1.0000; stroke:none;">
<circle cx="170.5750" cy="55.3400" r="0.5000" /> 
</g>
<g style="fill:#FFFFFF; fill-opacity:1.0000; stroke:none;">
<circle cx="168.0350" cy="55.3400" r="0.5000" /> 
</g>
<g style="fill:#FFFFFF; fill-opacity:1.0000; stroke:none;">
<circle cx="163.7750" cy="54.2200" r="0.6500" /> 
</g>
<g style="fill:#FFFFFF; fill-opacity:1.0000; stroke:none;">
<circle cx="158.7750" cy="54.2200" r="0.6500" /> 
</g>
<g style="fill:#FFFFFF; fill-opacity:1.0000; stroke:none;">
<circle cx="153.7750" cy="54.2200" r="0.6500" /> 
</g>
<g style="fill:#FFFFFF; fill-opacity:1.0000; stroke:none;">
<circle cx="186.3750" cy="71.7200" r="0.6500" /> 
</g>
<g style="fill:#FFFFFF; fill-opacity:1.0000; stroke:none;">
<circle cx="191.3750" cy="71.7200" r="0.6500" /> 
</g>
<g style="fill:#FFFFFF; fill-opacity:1.0000; stroke:none;">
<circle cx="196.3750" cy="71.7200" r="0.6500" /> 
</g>
<g style="fill:#FFFFFF; fill-opacity:1.0000; stroke:none;">
<circle cx="196.3750" cy="54.2200" r="0.6500" /> 
</g>
<g style="fill:#FFFFFF; fill-opacity:1.0000; stroke:none;">
<circle cx="191.3750" cy="54.2200" r="0.6500" /> 
</g>
<g style="fill:#FFFFFF; fill-opacity:1.0000; stroke:none;">
<circle cx="186.3750" cy="54.2200" r="0.6500" /> 
</g>
<g style="fill:#FFFFFF; fill-opacity:1.0000; stroke:none;">
<circle cx="153.7750" cy="71.7200" r="0.6500" /> 
</g>
<g style="fill:#FFFFFF; fill-opacity:1.0000; stroke:none;">
<circle cx="158.7750" cy="71.7200" r="0.6500" /> 
</g>
<g style="fill:#FFFFFF; fill-opacity:1.0000; stroke:none;">
<circle cx="163.7750" cy="71.7200" r="0.6500" /> 
</g>
<g style="fill:#FFFFFF; fill-opacity:1.0000; stroke:none;">
<circle cx="175.6550" cy="55.3400" r="0.5000" /> 
</g>
<g style="fill:#FFFFFF; fill-opacity:1.0000; stroke:none;">
<circle cx="173.1150" cy="55.3400" r="0.5000" /> 
</g>
<g style="fill:#FFFFFF; fill-opacity:1.0000; stroke:none;">
<circle cx="170.5750" cy="55.3400" r="0.5000" /> 
</g>
<g style="fill:#FFFFFF; fill-opacity:1.0000; stroke:none;">
<circle cx="168.0350" cy="55.3400" r="0.5000" /> 
</g>
<g style="fill:#FFFFFF; fill-opacity:1.0000; stroke:none;">
<circle cx="163.7750" cy="54.2200" r="0.6500" /> 
</g>
<g style="fill:#FFFFFF; fill-opacity:1.0000; stroke:none;">
<circle cx="158.7750" cy="54.2200" r="0.6500" /> 
</g>
<g style="fill:#FFFFFF; fill-opacity:1.0000; stroke:none;">
<circle cx="153.7750" cy="54.2200" r="0.6500" /> 
</g>
<g style="fill:#FFFFFF; fill-opacity:1.0000; stroke:none;">
<circle cx="186.3750" cy="71.7200" r="0.6500" /> 
</g>
<g style="fill:#FFFFFF; fill-opacity:1.0000; stroke:none;">
<circle cx="191.3750" cy="71.7200" r="0.6500" /> 
</g>
<g style="fill:#FFFFFF; fill-opacity:1.0000; stroke:none;">
<circle cx="196.3750" cy="71.7200" r="0.6500" /> 
</g> 
</svg>
