<?xml version="1.0" standalone="no"?>
 <!DOCTYPE svg PUBLIC "-//W3C//DTD SVG 1.1//EN" 
 "http://www.w3.org/Graphics/SVG/1.1/DTD/svg11.dtd"> 
<svg
  xmlns:svg="http://www.w3.org/2000/svg"
  xmlns="http://www.w3.org/2000/svg"
  xmlns:xlink="http://www.w3.org/1999/xlink"
  version="1.1"
  width="297.0022mm" height="210.0072mm" viewBox="0.0000 0.0000 297.0022 210.0072">
<title>SVG Image created as simpleCh552-F_Silkscreen.svg date 2026/01/02 19:29:18 </title>
  <desc>Image generated by PCBNEW </desc>
<g style="fill:#000000; fill-opacity:1.0000;stroke:#000000; stroke-opacity:1.0000;
stroke-linecap:round; stroke-linejoin:round;"
 transform="translate(0 0) scale(1 1)">
</g>
<g style="fill:none; 
stroke:#000000; stroke-width:0.1500; stroke-opacity:1; 
stroke-linecap:round; stroke-linejoin:round;">
<g transform="rotate(-90.000000 171.1100 53.4000)">
<text x="171.1100" y="53.4000"
textLength="2.4881" font-size="1.3333" lengthAdjust="spacingAndGlyphs"
text-anchor="start" opacity="0" stroke-opacity="0">D+</text>
</g>
<g class="stroked-text"><desc>D+</desc>
<path d="M170.9798 53.0632
L169.9798 53.0632
" />
<path d="M169.9798 53.0632
L169.9798 52.8251
" />
<path d="M169.9798 52.8251
L170.0274 52.6823
" />
<path d="M170.0274 52.6823
L170.1227 52.5870
" />
<path d="M170.1227 52.5870
L170.2179 52.5394
" />
<path d="M170.2179 52.5394
L170.4084 52.4918
" />
<path d="M170.4084 52.4918
L170.5512 52.4918
" />
<path d="M170.5512 52.4918
L170.7417 52.5394
" />
<path d="M170.7417 52.5394
L170.8370 52.5870
" />
<path d="M170.8370 52.5870
L170.9322 52.6823
" />
<path d="M170.9322 52.6823
L170.9798 52.8251
" />
<path d="M170.9798 52.8251
L170.9798 53.0632
" />
<path d="M170.5989 52.0632
L170.5989 51.3013
" />
<path d="M170.9798 51.6823
L170.2179 51.6823
" />
</g><g transform="rotate(-90.000000 168.4900 53.4000)">
<text x="168.4900" y="53.4000"
textLength="3.2976" font-size="1.3333" lengthAdjust="spacingAndGlyphs"
text-anchor="start" opacity="0" stroke-opacity="0">GND</text>
</g>
<g class="stroked-text"><desc>GND</desc>
<path d="M167.4074 52.5394
L167.3598 52.6346
" />
<path d="M167.3598 52.6346
L167.3598 52.7775
" />
<path d="M167.3598 52.7775
L167.4074 52.9204
" />
<path d="M167.4074 52.9204
L167.5027 53.0156
" />
<path d="M167.5027 53.0156
L167.5979 53.0632
" />
<path d="M167.5979 53.0632
L167.7884 53.1108
" />
<path d="M167.7884 53.1108
L167.9312 53.1108
" />
<path d="M167.9312 53.1108
L168.1217 53.0632
" />
<path d="M168.1217 53.0632
L168.2170 53.0156
" />
<path d="M168.2170 53.0156
L168.3122 52.9204
" />
<path d="M168.3122 52.9204
L168.3598 52.7775
" />
<path d="M168.3598 52.7775
L168.3598 52.6823
" />
<path d="M168.3598 52.6823
L168.3122 52.5394
" />
<path d="M168.3122 52.5394
L168.2646 52.4918
" />
<path d="M168.2646 52.4918
L167.9312 52.4918
" />
<path d="M167.9312 52.4918
L167.9312 52.6823
" />
<path d="M168.3598 52.0632
L167.3598 52.0632
" />
<path d="M167.3598 52.0632
L168.3598 51.4918
" />
<path d="M168.3598 51.4918
L167.3598 51.4918
" />
<path d="M168.3598 51.0156
L167.3598 51.0156
" />
<path d="M167.3598 51.0156
L167.3598 50.7775
" />
<path d="M167.3598 50.7775
L167.4074 50.6346
" />
<path d="M167.4074 50.6346
L167.5027 50.5394
" />
<path d="M167.5027 50.5394
L167.5979 50.4918
" />
<path d="M167.5979 50.4918
L167.7884 50.4442
" />
<path d="M167.7884 50.4442
L167.9312 50.4442
" />
<path d="M167.9312 50.4442
L168.1217 50.4918
" />
<path d="M168.1217 50.4918
L168.2170 50.5394
" />
<path d="M168.2170 50.5394
L168.3122 50.6346
" />
<path d="M168.3122 50.6346
L168.3598 50.7775
" />
<path d="M168.3598 50.7775
L168.3598 51.0156
" />
</g><g transform="rotate(-90.000000 173.7500 53.4000)">
<text x="173.7500" y="53.4000"
textLength="2.4881" font-size="1.3333" lengthAdjust="spacingAndGlyphs"
text-anchor="start" opacity="0" stroke-opacity="0">D-</text>
</g>
<g class="stroked-text"><desc>D-</desc>
<path d="M173.6198 53.0632
L172.6198 53.0632
" />
<path d="M172.6198 53.0632
L172.6198 52.8251
" />
<path d="M172.6198 52.8251
L172.6674 52.6823
" />
<path d="M172.6674 52.6823
L172.7627 52.5870
" />
<path d="M172.7627 52.5870
L172.8579 52.5394
" />
<path d="M172.8579 52.5394
L173.0484 52.4918
" />
<path d="M173.0484 52.4918
L173.1912 52.4918
" />
<path d="M173.1912 52.4918
L173.3817 52.5394
" />
<path d="M173.3817 52.5394
L173.4770 52.5870
" />
<path d="M173.4770 52.5870
L173.5722 52.6823
" />
<path d="M173.5722 52.6823
L173.6198 52.8251
" />
<path d="M173.6198 52.8251
L173.6198 53.0632
" />
<path d="M173.2389 52.0632
L173.2389 51.3013
" />
</g></g>
<g style="fill:none; 
stroke:#000000; stroke-width:0.4000; stroke-opacity:1; 
stroke-linecap:round; stroke-linejoin:round;">
<g transform="rotate(-45.000000 184.2116 66.7816)">
<text x="184.2116" y="67.7816"
textLength="28.2286" font-size="2.6667" lengthAdjust="spacingAndGlyphs"
text-anchor="middle" opacity="0" stroke-opacity="0">ch552Deej By Ved</text>
</g>
<g class="stroked-text"><desc>ch552Deej By Ved</desc>
<path d="M176.0291 76.1084
L175.9618 76.3105
" />
<path d="M175.9618 76.3105
L175.6924 76.5798
" />
<path d="M175.6924 76.5798
L175.4904 76.6472
" />
<path d="M175.4904 76.6472
L175.3557 76.6472
" />
<path d="M175.3557 76.6472
L175.1537 76.5798
" />
<path d="M175.1537 76.5798
L174.7496 76.1758
" />
<path d="M174.7496 76.1758
L174.6823 75.9738
" />
<path d="M174.6823 75.9738
L174.6823 75.8391
" />
<path d="M174.6823 75.8391
L174.7496 75.6370
" />
<path d="M174.7496 75.6370
L175.0190 75.3677
" />
<path d="M175.0190 75.3677
L175.2210 75.3003
" />
<path d="M176.7026 75.5697
L175.2884 74.1555
" />
<path d="M177.3087 74.9636
L176.5679 74.2228
" />
<path d="M176.5679 74.2228
L176.3658 74.1555
" />
<path d="M176.3658 74.1555
L176.1638 74.2228
" />
<path d="M176.1638 74.2228
L175.9618 74.4249
" />
<path d="M175.9618 74.4249
L175.8944 74.6269
" />
<path d="M175.8944 74.6269
L175.8944 74.7616
" />
<path d="M177.2413 72.2025
L176.5679 72.8760
" />
<path d="M176.5679 72.8760
L177.1740 73.6167
" />
<path d="M177.1740 73.6167
L177.1740 73.4820
" />
<path d="M177.1740 73.4820
L177.2413 73.2800
" />
<path d="M177.2413 73.2800
L177.5780 72.9433
" />
<path d="M177.5780 72.9433
L177.7801 72.8760
" />
<path d="M177.7801 72.8760
L177.9147 72.8760
" />
<path d="M177.9147 72.8760
L178.1168 72.9433
" />
<path d="M178.1168 72.9433
L178.4535 73.2800
" />
<path d="M178.4535 73.2800
L178.5208 73.4820
" />
<path d="M178.5208 73.4820
L178.5208 73.6167
" />
<path d="M178.5208 73.6167
L178.4535 73.8188
" />
<path d="M178.4535 73.8188
L178.1168 74.1555
" />
<path d="M178.1168 74.1555
L177.9147 74.2228
" />
<path d="M177.9147 74.2228
L177.7801 74.2228
" />
<path d="M178.5882 70.8557
L177.9147 71.5291
" />
<path d="M177.9147 71.5291
L178.5208 72.2699
" />
<path d="M178.5208 72.2699
L178.5208 72.1352
" />
<path d="M178.5208 72.1352
L178.5882 71.9331
" />
<path d="M178.5882 71.9331
L178.9249 71.5964
" />
<path d="M178.9249 71.5964
L179.1269 71.5291
" />
<path d="M179.1269 71.5291
L179.2616 71.5291
" />
<path d="M179.2616 71.5291
L179.4637 71.5964
" />
<path d="M179.4637 71.5964
L179.8004 71.9331
" />
<path d="M179.8004 71.9331
L179.8677 72.1352
" />
<path d="M179.8677 72.1352
L179.8677 72.2699
" />
<path d="M179.8677 72.2699
L179.8004 72.4719
" />
<path d="M179.8004 72.4719
L179.4637 72.8086
" />
<path d="M179.4637 72.8086
L179.2616 72.8760
" />
<path d="M179.2616 72.8760
L179.1269 72.8760
" />
<path d="M179.3290 70.3842
L179.3290 70.2496
" />
<path d="M179.3290 70.2496
L179.3963 70.0475
" />
<path d="M179.3963 70.0475
L179.7330 69.7108
" />
<path d="M179.7330 69.7108
L179.9351 69.6435
" />
<path d="M179.9351 69.6435
L180.0697 69.6435
" />
<path d="M180.0697 69.6435
L180.2718 69.7108
" />
<path d="M180.2718 69.7108
L180.4065 69.8455
" />
<path d="M180.4065 69.8455
L180.5411 70.1149
" />
<path d="M180.5411 70.1149
L180.5411 71.7311
" />
<path d="M180.5411 71.7311
L181.4166 70.8557
" />
<path d="M182.0227 70.2496
L180.6085 68.8353
" />
<path d="M180.6085 68.8353
L180.9452 68.4986
" />
<path d="M180.9452 68.4986
L181.2146 68.3639
" />
<path d="M181.2146 68.3639
L181.4840 68.3639
" />
<path d="M181.4840 68.3639
L181.6860 68.4313
" />
<path d="M181.6860 68.4313
L182.0227 68.6333
" />
<path d="M182.0227 68.6333
L182.2247 68.8353
" />
<path d="M182.2247 68.8353
L182.4268 69.1721
" />
<path d="M182.4268 69.1721
L182.4941 69.3741
" />
<path d="M182.4941 69.3741
L182.4941 69.6435
" />
<path d="M182.4941 69.6435
L182.3594 69.9128
" />
<path d="M182.3594 69.9128
L182.0227 70.2496
" />
<path d="M183.9083 68.2293
L183.8410 68.4313
" />
<path d="M183.8410 68.4313
L183.5716 68.7007
" />
<path d="M183.5716 68.7007
L183.3696 68.7680
" />
<path d="M183.3696 68.7680
L183.1675 68.7007
" />
<path d="M183.1675 68.7007
L182.6288 68.1619
" />
<path d="M182.6288 68.1619
L182.5615 67.9599
" />
<path d="M182.5615 67.9599
L182.6288 67.7578
" />
<path d="M182.6288 67.7578
L182.8982 67.4885
" />
<path d="M182.8982 67.4885
L183.1002 67.4211
" />
<path d="M183.1002 67.4211
L183.3022 67.4885
" />
<path d="M183.3022 67.4885
L183.4369 67.6232
" />
<path d="M183.4369 67.6232
L182.8982 68.4313
" />
<path d="M185.1205 67.0171
L185.0532 67.2191
" />
<path d="M185.0532 67.2191
L184.7838 67.4885
" />
<path d="M184.7838 67.4885
L184.5818 67.5558
" />
<path d="M184.5818 67.5558
L184.3797 67.4885
" />
<path d="M184.3797 67.4885
L183.8410 66.9497
" />
<path d="M183.8410 66.9497
L183.7736 66.7477
" />
<path d="M183.7736 66.7477
L183.8410 66.5457
" />
<path d="M183.8410 66.5457
L184.1104 66.2763
" />
<path d="M184.1104 66.2763
L184.3124 66.2089
" />
<path d="M184.3124 66.2089
L184.5144 66.2763
" />
<path d="M184.5144 66.2763
L184.6491 66.4110
" />
<path d="M184.6491 66.4110
L184.1104 67.2191
" />
<path d="M184.9185 65.4682
L186.1307 66.6804
" />
<path d="M186.1307 66.6804
L186.1980 66.8824
" />
<path d="M186.1980 66.8824
L186.1307 67.0844
" />
<path d="M186.1307 67.0844
L186.0633 67.1518
" />
<path d="M184.4471 64.9968
L184.4471 65.1315
" />
<path d="M184.4471 65.1315
L184.5818 65.1315
" />
<path d="M184.5818 65.1315
L184.5818 64.9968
" />
<path d="M184.5818 64.9968
L184.4471 64.9968
" />
<path d="M184.4471 64.9968
L184.5818 65.1315
" />
<path d="M187.3428 63.4479
L187.6122 63.3132
" />
<path d="M187.6122 63.3132
L187.7469 63.3132
" />
<path d="M187.7469 63.3132
L187.9489 63.3805
" />
<path d="M187.9489 63.3805
L188.1510 63.5826
" />
<path d="M188.1510 63.5826
L188.2183 63.7846
" />
<path d="M188.2183 63.7846
L188.2183 63.9193
" />
<path d="M188.2183 63.9193
L188.1510 64.1213
" />
<path d="M188.1510 64.1213
L187.6122 64.6600
" />
<path d="M187.6122 64.6600
L186.1980 63.2458
" />
<path d="M186.1980 63.2458
L186.6694 62.7744
" />
<path d="M186.6694 62.7744
L186.8714 62.7071
" />
<path d="M186.8714 62.7071
L187.0061 62.7071
" />
<path d="M187.0061 62.7071
L187.2082 62.7744
" />
<path d="M187.2082 62.7744
L187.3428 62.9091
" />
<path d="M187.3428 62.9091
L187.4102 63.1111
" />
<path d="M187.4102 63.1111
L187.4102 63.2458
" />
<path d="M187.4102 63.2458
L187.3428 63.4479
" />
<path d="M187.3428 63.4479
L186.8714 63.9193
" />
<path d="M187.9489 62.4377
L189.2285 63.0438
" />
<path d="M188.6224 61.7643
L189.2285 63.0438
" />
<path d="M189.2285 63.0438
L189.4305 63.5152
" />
<path d="M189.4305 63.5152
L189.4305 63.6499
" />
<path d="M189.4305 63.6499
L189.3631 63.8519
" />
<path d="M189.5652 59.8787
L191.4508 60.8215
" />
<path d="M191.4508 60.8215
L190.5080 58.9358
" />
<path d="M192.8650 59.2726
L192.7977 59.4746
" />
<path d="M192.7977 59.4746
L192.5283 59.7440
" />
<path d="M192.5283 59.7440
L192.3263 59.8113
" />
<path d="M192.3263 59.8113
L192.1242 59.7440
" />
<path d="M192.1242 59.7440
L191.5855 59.2052
" />
<path d="M191.5855 59.2052
L191.5181 59.0032
" />
<path d="M191.5181 59.0032
L191.5855 58.8012
" />
<path d="M191.5855 58.8012
L191.8549 58.5318
" />
<path d="M191.8549 58.5318
L192.0569 58.4644
" />
<path d="M192.0569 58.4644
L192.2589 58.5318
" />
<path d="M192.2589 58.5318
L192.3936 58.6665
" />
<path d="M192.3936 58.6665
L191.8549 59.4746
" />
<path d="M194.2119 58.0604
L192.7977 56.6462
" />
<path d="M194.1445 57.9930
L194.0772 58.1951
" />
<path d="M194.0772 58.1951
L193.8078 58.4644
" />
<path d="M193.8078 58.4644
L193.6058 58.5318
" />
<path d="M193.6058 58.5318
L193.4711 58.5318
" />
<path d="M193.4711 58.5318
L193.2691 58.4644
" />
<path d="M193.2691 58.4644
L192.8650 58.0604
" />
<path d="M192.8650 58.0604
L192.7977 57.8584
" />
<path d="M192.7977 57.8584
L192.7977 57.7237
" />
<path d="M192.7977 57.7237
L192.8650 57.5216
" />
<path d="M192.8650 57.5216
L193.1344 57.2523
" />
<path d="M193.1344 57.2523
L193.3364 57.1849
" />
</g><g transform="rotate(-45.000000 186.4884 69.0584)">
<text x="186.4884" y="70.0584"
textLength="21.5619" font-size="2.6667" lengthAdjust="spacingAndGlyphs"
text-anchor="middle" opacity="0" stroke-opacity="0">Made In India</text>
</g>
<g class="stroked-text"><desc>Made In India</desc>
<path d="M180.1242 76.7017
L178.7100 75.2874
" />
<path d="M178.7100 75.2874
L180.1916 75.8262
" />
<path d="M180.1916 75.8262
L179.6528 74.3446
" />
<path d="M179.6528 74.3446
L181.0670 75.7589
" />
<path d="M182.3465 74.4793
L181.6058 73.7385
" />
<path d="M181.6058 73.7385
L181.4037 73.6712
" />
<path d="M181.4037 73.6712
L181.2017 73.7385
" />
<path d="M181.2017 73.7385
L180.9323 74.0079
" />
<path d="M180.9323 74.0079
L180.8650 74.2100
" />
<path d="M182.2792 74.4120
L182.2119 74.6140
" />
<path d="M182.2119 74.6140
L181.8751 74.9507
" />
<path d="M181.8751 74.9507
L181.6731 75.0181
" />
<path d="M181.6731 75.0181
L181.4711 74.9507
" />
<path d="M181.4711 74.9507
L181.3364 74.8160
" />
<path d="M181.3364 74.8160
L181.2691 74.6140
" />
<path d="M181.2691 74.6140
L181.3364 74.4120
" />
<path d="M181.3364 74.4120
L181.6731 74.0753
" />
<path d="M181.6731 74.0753
L181.7405 73.8732
" />
<path d="M183.6261 73.1998
L182.2119 71.7856
" />
<path d="M183.5587 73.1325
L183.4914 73.3345
" />
<path d="M183.4914 73.3345
L183.2220 73.6039
" />
<path d="M183.2220 73.6039
L183.0200 73.6712
" />
<path d="M183.0200 73.6712
L182.8853 73.6712
" />
<path d="M182.8853 73.6712
L182.6833 73.6039
" />
<path d="M182.6833 73.6039
L182.2792 73.1998
" />
<path d="M182.2792 73.1998
L182.2119 72.9978
" />
<path d="M182.2119 72.9978
L182.2119 72.8631
" />
<path d="M182.2119 72.8631
L182.2792 72.6611
" />
<path d="M182.2792 72.6611
L182.5486 72.3917
" />
<path d="M182.5486 72.3917
L182.7506 72.3243
" />
<path d="M184.7709 71.9203
L184.7036 72.1223
" />
<path d="M184.7036 72.1223
L184.4342 72.3917
" />
<path d="M184.4342 72.3917
L184.2322 72.4590
" />
<path d="M184.2322 72.4590
L184.0301 72.3917
" />
<path d="M184.0301 72.3917
L183.4914 71.8529
" />
<path d="M183.4914 71.8529
L183.4240 71.6509
" />
<path d="M183.4240 71.6509
L183.4914 71.4489
" />
<path d="M183.4914 71.4489
L183.7608 71.1795
" />
<path d="M183.7608 71.1795
L183.9628 71.1122
" />
<path d="M183.9628 71.1122
L184.1648 71.1795
" />
<path d="M184.1648 71.1795
L184.2995 71.3142
" />
<path d="M184.2995 71.3142
L183.7608 72.1223
" />
<path d="M186.5892 70.2367
L185.1750 68.8225
" />
<path d="M186.3198 68.6204
L187.2626 69.5632
" />
<path d="M186.4545 68.7551
L186.4545 68.6204
" />
<path d="M186.4545 68.6204
L186.5218 68.4184
" />
<path d="M186.5218 68.4184
L186.7239 68.2164
" />
<path d="M186.7239 68.2164
L186.9259 68.1490
" />
<path d="M186.9259 68.1490
L187.1279 68.2164
" />
<path d="M187.1279 68.2164
L187.8687 68.9572
" />
<path d="M189.6196 67.2062
L188.2054 65.7920
" />
<path d="M189.3503 65.5900
L190.2931 66.5328
" />
<path d="M189.4850 65.7247
L189.4850 65.5900
" />
<path d="M189.4850 65.5900
L189.5523 65.3880
" />
<path d="M189.5523 65.3880
L189.7543 65.1859
" />
<path d="M189.7543 65.1859
L189.9564 65.1186
" />
<path d="M189.9564 65.1186
L190.1584 65.1859
" />
<path d="M190.1584 65.1859
L190.8992 65.9267
" />
<path d="M192.1787 64.6472
L190.7645 63.2330
" />
<path d="M192.1114 64.5798
L192.0440 64.7819
" />
<path d="M192.0440 64.7819
L191.7746 65.0512
" />
<path d="M191.7746 65.0512
L191.5726 65.1186
" />
<path d="M191.5726 65.1186
L191.4379 65.1186
" />
<path d="M191.4379 65.1186
L191.2359 65.0512
" />
<path d="M191.2359 65.0512
L190.8318 64.6472
" />
<path d="M190.8318 64.6472
L190.7645 64.4451
" />
<path d="M190.7645 64.4451
L190.7645 64.3105
" />
<path d="M190.7645 64.3105
L190.8318 64.1084
" />
<path d="M190.8318 64.1084
L191.1012 63.8391
" />
<path d="M191.1012 63.8391
L191.3032 63.7717
" />
<path d="M192.8521 63.9737
L191.9093 63.0309
" />
<path d="M191.4379 62.5595
L191.4379 62.6942
" />
<path d="M191.4379 62.6942
L191.5726 62.6942
" />
<path d="M191.5726 62.6942
L191.5726 62.5595
" />
<path d="M191.5726 62.5595
L191.4379 62.5595
" />
<path d="M191.4379 62.5595
L191.5726 62.6942
" />
<path d="M194.1317 62.6942
L193.3909 61.9534
" />
<path d="M193.3909 61.9534
L193.1889 61.8861
" />
<path d="M193.1889 61.8861
L192.9868 61.9534
" />
<path d="M192.9868 61.9534
L192.7174 62.2228
" />
<path d="M192.7174 62.2228
L192.6501 62.4248
" />
<path d="M194.0643 62.6269
L193.9970 62.8289
" />
<path d="M193.9970 62.8289
L193.6603 63.1656
" />
<path d="M193.6603 63.1656
L193.4582 63.2330
" />
<path d="M193.4582 63.2330
L193.2562 63.1656
" />
<path d="M193.2562 63.1656
L193.1215 63.0309
" />
<path d="M193.1215 63.0309
L193.0542 62.8289
" />
<path d="M193.0542 62.8289
L193.1215 62.6269
" />
<path d="M193.1215 62.6269
L193.4582 62.2901
" />
<path d="M193.4582 62.2901
L193.5256 62.0881
" />
</g></g>
<g style="fill:none; 
stroke:#000000; stroke-width:0.1500; stroke-opacity:1; 
stroke-linecap:round; stroke-linejoin:round;">
<g transform="rotate(-90.000000 176.5600 53.4000)">
<text x="176.5600" y="53.4000"
textLength="3.1071" font-size="1.3333" lengthAdjust="spacingAndGlyphs"
text-anchor="start" opacity="0" stroke-opacity="0">VCC</text>
</g>
<g class="stroked-text"><desc>VCC</desc>
<path d="M175.4298 53.2061
L176.4298 52.8727
" />
<path d="M176.4298 52.8727
L175.4298 52.5394
" />
<path d="M176.3346 51.6346
L176.3822 51.6823
" />
<path d="M176.3822 51.6823
L176.4298 51.8251
" />
<path d="M176.4298 51.8251
L176.4298 51.9204
" />
<path d="M176.4298 51.9204
L176.3822 52.0632
" />
<path d="M176.3822 52.0632
L176.2870 52.1585
" />
<path d="M176.2870 52.1585
L176.1917 52.2061
" />
<path d="M176.1917 52.2061
L176.0012 52.2537
" />
<path d="M176.0012 52.2537
L175.8584 52.2537
" />
<path d="M175.8584 52.2537
L175.6679 52.2061
" />
<path d="M175.6679 52.2061
L175.5727 52.1585
" />
<path d="M175.5727 52.1585
L175.4774 52.0632
" />
<path d="M175.4774 52.0632
L175.4298 51.9204
" />
<path d="M175.4298 51.9204
L175.4298 51.8251
" />
<path d="M175.4298 51.8251
L175.4774 51.6823
" />
<path d="M175.4774 51.6823
L175.5251 51.6346
" />
<path d="M176.3346 50.6346
L176.3822 50.6823
" />
<path d="M176.3822 50.6823
L176.4298 50.8251
" />
<path d="M176.4298 50.8251
L176.4298 50.9204
" />
<path d="M176.4298 50.9204
L176.3822 51.0632
" />
<path d="M176.3822 51.0632
L176.2870 51.1585
" />
<path d="M176.2870 51.1585
L176.1917 51.2061
" />
<path d="M176.1917 51.2061
L176.0012 51.2537
" />
<path d="M176.0012 51.2537
L175.8584 51.2537
" />
<path d="M175.8584 51.2537
L175.6679 51.2061
" />
<path d="M175.6679 51.2061
L175.5727 51.1585
" />
<path d="M175.5727 51.1585
L175.4774 51.0632
" />
<path d="M175.4774 51.0632
L175.4298 50.9204
" />
<path d="M175.4298 50.9204
L175.4298 50.8251
" />
<path d="M175.4298 50.8251
L175.4774 50.6823
" />
<path d="M175.4774 50.6823
L175.5251 50.6346
" />
</g><text x="171.8350" y="70.3500"
textLength="2.2500" font-size="1.3333" lengthAdjust="spacingAndGlyphs"
text-anchor="middle" opacity="0" stroke-opacity="0">U1</text>
<g class="stroked-text"><desc>U1</desc>
<path d="M171.0731 69.3048
L171.0731 70.1143
" />
<path d="M171.0731 70.1143
L171.1207 70.2096
" />
<path d="M171.1207 70.2096
L171.1683 70.2572
" />
<path d="M171.1683 70.2572
L171.2636 70.3048
" />
<path d="M171.2636 70.3048
L171.4540 70.3048
" />
<path d="M171.4540 70.3048
L171.5493 70.2572
" />
<path d="M171.5493 70.2572
L171.5969 70.2096
" />
<path d="M171.5969 70.2096
L171.6445 70.1143
" />
<path d="M171.6445 70.1143
L171.6445 69.3048
" />
<path d="M172.6445 70.3048
L172.0731 70.3048
" />
<path d="M172.3588 70.3048
L172.3588 69.3048
" />
<path d="M172.3588 69.3048
L172.2636 69.4477
" />
<path d="M172.2636 69.4477
L172.1683 69.5429
" />
<path d="M172.1683 69.5429
L172.0731 69.5905
" />
</g><text x="181.4800" y="66.2700"
textLength="2.2024" font-size="1.3333" lengthAdjust="spacingAndGlyphs"
text-anchor="middle" opacity="0" stroke-opacity="0">C3</text>
<g class="stroked-text"><desc>C3</desc>
<path d="M181.3133 66.1296
L181.2657 66.1772
" />
<path d="M181.2657 66.1772
L181.1229 66.2248
" />
<path d="M181.1229 66.2248
L181.0276 66.2248
" />
<path d="M181.0276 66.2248
L180.8848 66.1772
" />
<path d="M180.8848 66.1772
L180.7895 66.0820
" />
<path d="M180.7895 66.0820
L180.7419 65.9867
" />
<path d="M180.7419 65.9867
L180.6943 65.7962
" />
<path d="M180.6943 65.7962
L180.6943 65.6534
" />
<path d="M180.6943 65.6534
L180.7419 65.4629
" />
<path d="M180.7419 65.4629
L180.7895 65.3677
" />
<path d="M180.7895 65.3677
L180.8848 65.2724
" />
<path d="M180.8848 65.2724
L181.0276 65.2248
" />
<path d="M181.0276 65.2248
L181.1229 65.2248
" />
<path d="M181.1229 65.2248
L181.2657 65.2724
" />
<path d="M181.2657 65.2724
L181.3133 65.3201
" />
<path d="M181.6467 65.2248
L182.2657 65.2248
" />
<path d="M182.2657 65.2248
L181.9324 65.6058
" />
<path d="M181.9324 65.6058
L182.0752 65.6058
" />
<path d="M182.0752 65.6058
L182.1705 65.6534
" />
<path d="M182.1705 65.6534
L182.2181 65.7010
" />
<path d="M182.2181 65.7010
L182.2657 65.7962
" />
<path d="M182.2657 65.7962
L182.2657 66.0343
" />
<path d="M182.2657 66.0343
L182.2181 66.1296
" />
<path d="M182.2181 66.1296
L182.1705 66.1772
" />
<path d="M182.1705 66.1772
L182.0752 66.2248
" />
<path d="M182.0752 66.2248
L181.7895 66.2248
" />
<path d="M181.7895 66.2248
L181.6943 66.1772
" />
<path d="M181.6943 66.1772
L181.6467 66.1296
" />
</g><text x="179.4200" y="58.6800"
textLength="2.2024" font-size="1.3333" lengthAdjust="spacingAndGlyphs"
text-anchor="middle" opacity="0" stroke-opacity="0">D1</text>
<g class="stroked-text"><desc>D1</desc>
<path d="M178.6819 58.6348
L178.6819 57.6348
" />
<path d="M178.6819 57.6348
L178.9200 57.6348
" />
<path d="M178.9200 57.6348
L179.0629 57.6824
" />
<path d="M179.0629 57.6824
L179.1581 57.7777
" />
<path d="M179.1581 57.7777
L179.2057 57.8729
" />
<path d="M179.2057 57.8729
L179.2533 58.0634
" />
<path d="M179.2533 58.0634
L179.2533 58.2062
" />
<path d="M179.2533 58.2062
L179.2057 58.3967
" />
<path d="M179.2057 58.3967
L179.1581 58.4920
" />
<path d="M179.1581 58.4920
L179.0629 58.5872
" />
<path d="M179.0629 58.5872
L178.9200 58.6348
" />
<path d="M178.9200 58.6348
L178.6819 58.6348
" />
<path d="M180.2057 58.6348
L179.6343 58.6348
" />
<path d="M179.9200 58.6348
L179.9200 57.6348
" />
<path d="M179.9200 57.6348
L179.8248 57.7777
" />
<path d="M179.8248 57.7777
L179.7295 57.8729
" />
<path d="M179.7295 57.8729
L179.6343 57.9205
" />
</g><text x="170.7550" y="60.5900"
textLength="3.2976" font-size="1.3333" lengthAdjust="spacingAndGlyphs"
text-anchor="middle" opacity="0" stroke-opacity="0">SW1</text>
<g class="stroked-text"><desc>SW1</desc>
<path d="M169.4217 60.4972
L169.5645 60.5448
" />
<path d="M169.5645 60.5448
L169.8026 60.5448
" />
<path d="M169.8026 60.5448
L169.8979 60.4972
" />
<path d="M169.8979 60.4972
L169.9455 60.4496
" />
<path d="M169.9455 60.4496
L169.9931 60.3543
" />
<path d="M169.9931 60.3543
L169.9931 60.2591
" />
<path d="M169.9931 60.2591
L169.9455 60.1639
" />
<path d="M169.9455 60.1639
L169.8979 60.1162
" />
<path d="M169.8979 60.1162
L169.8026 60.0686
" />
<path d="M169.8026 60.0686
L169.6121 60.0210
" />
<path d="M169.6121 60.0210
L169.5169 59.9734
" />
<path d="M169.5169 59.9734
L169.4693 59.9258
" />
<path d="M169.4693 59.9258
L169.4217 59.8305
" />
<path d="M169.4217 59.8305
L169.4217 59.7353
" />
<path d="M169.4217 59.7353
L169.4693 59.6401
" />
<path d="M169.4693 59.6401
L169.5169 59.5924
" />
<path d="M169.5169 59.5924
L169.6121 59.5448
" />
<path d="M169.6121 59.5448
L169.8502 59.5448
" />
<path d="M169.8502 59.5448
L169.9931 59.5924
" />
<path d="M170.3264 59.5448
L170.5645 60.5448
" />
<path d="M170.5645 60.5448
L170.7550 59.8305
" />
<path d="M170.7550 59.8305
L170.9455 60.5448
" />
<path d="M170.9455 60.5448
L171.1836 59.5448
" />
<path d="M172.0883 60.5448
L171.5169 60.5448
" />
<path d="M171.8026 60.5448
L171.8026 59.5448
" />
<path d="M171.8026 59.5448
L171.7074 59.6877
" />
<path d="M171.7074 59.6877
L171.6121 59.7829
" />
<path d="M171.6121 59.7829
L171.5169 59.8305
" />
</g><text x="176.8250" y="69.2400"
textLength="2.2024" font-size="1.3333" lengthAdjust="spacingAndGlyphs"
text-anchor="middle" opacity="0" stroke-opacity="0">C2</text>
<g class="stroked-text"><desc>C2</desc>
<path d="M176.6583 69.0996
L176.6107 69.1472
" />
<path d="M176.6107 69.1472
L176.4679 69.1948
" />
<path d="M176.4679 69.1948
L176.3726 69.1948
" />
<path d="M176.3726 69.1948
L176.2298 69.1472
" />
<path d="M176.2298 69.1472
L176.1345 69.0520
" />
<path d="M176.1345 69.0520
L176.0869 68.9567
" />
<path d="M176.0869 68.9567
L176.0393 68.7662
" />
<path d="M176.0393 68.7662
L176.0393 68.6234
" />
<path d="M176.0393 68.6234
L176.0869 68.4329
" />
<path d="M176.0869 68.4329
L176.1345 68.3377
" />
<path d="M176.1345 68.3377
L176.2298 68.2424
" />
<path d="M176.2298 68.2424
L176.3726 68.1948
" />
<path d="M176.3726 68.1948
L176.4679 68.1948
" />
<path d="M176.4679 68.1948
L176.6107 68.2424
" />
<path d="M176.6107 68.2424
L176.6583 68.2901
" />
<path d="M177.0393 68.2901
L177.0869 68.2424
" />
<path d="M177.0869 68.2424
L177.1821 68.1948
" />
<path d="M177.1821 68.1948
L177.4202 68.1948
" />
<path d="M177.4202 68.1948
L177.5155 68.2424
" />
<path d="M177.5155 68.2424
L177.5631 68.2901
" />
<path d="M177.5631 68.2901
L177.6107 68.3853
" />
<path d="M177.6107 68.3853
L177.6107 68.4805
" />
<path d="M177.6107 68.4805
L177.5631 68.6234
" />
<path d="M177.5631 68.6234
L176.9917 69.1948
" />
<path d="M176.9917 69.1948
L177.6107 69.1948
" />
</g><text x="179.1200" y="53.7300"
textLength="2.9643" font-size="1.3333" lengthAdjust="spacingAndGlyphs"
text-anchor="middle" opacity="0" stroke-opacity="0">JP1</text>
<g class="stroked-text"><desc>JP1</desc>
<path d="M178.2867 52.6848
L178.2867 53.3991
" />
<path d="M178.2867 53.3991
L178.2390 53.5420
" />
<path d="M178.2390 53.5420
L178.1438 53.6372
" />
<path d="M178.1438 53.6372
L178.0010 53.6848
" />
<path d="M178.0010 53.6848
L177.9057 53.6848
" />
<path d="M178.7629 53.6848
L178.7629 52.6848
" />
<path d="M178.7629 52.6848
L179.1438 52.6848
" />
<path d="M179.1438 52.6848
L179.2390 52.7324
" />
<path d="M179.2390 52.7324
L179.2867 52.7801
" />
<path d="M179.2867 52.7801
L179.3343 52.8753
" />
<path d="M179.3343 52.8753
L179.3343 53.0182
" />
<path d="M179.3343 53.0182
L179.2867 53.1134
" />
<path d="M179.2867 53.1134
L179.2390 53.1610
" />
<path d="M179.2390 53.1610
L179.1438 53.2086
" />
<path d="M179.1438 53.2086
L178.7629 53.2086
" />
<path d="M180.2867 53.6848
L179.7152 53.6848
" />
<path d="M180.0010 53.6848
L180.0010 52.6848
" />
<path d="M180.0010 52.6848
L179.9057 52.8277
" />
<path d="M179.9057 52.8277
L179.8105 52.9229
" />
<path d="M179.8105 52.9229
L179.7152 52.9705
" />
</g><text x="180.6700" y="63.6200"
textLength="2.2024" font-size="1.3333" lengthAdjust="spacingAndGlyphs"
text-anchor="middle" opacity="0" stroke-opacity="0">C1</text>
<g class="stroked-text"><desc>C1</desc>
<path d="M180.5033 63.4796
L180.4557 63.5272
" />
<path d="M180.4557 63.5272
L180.3129 63.5748
" />
<path d="M180.3129 63.5748
L180.2176 63.5748
" />
<path d="M180.2176 63.5748
L180.0748 63.5272
" />
<path d="M180.0748 63.5272
L179.9795 63.4320
" />
<path d="M179.9795 63.4320
L179.9319 63.3367
" />
<path d="M179.9319 63.3367
L179.8843 63.1462
" />
<path d="M179.8843 63.1462
L179.8843 63.0034
" />
<path d="M179.8843 63.0034
L179.9319 62.8129
" />
<path d="M179.9319 62.8129
L179.9795 62.7177
" />
<path d="M179.9795 62.7177
L180.0748 62.6224
" />
<path d="M180.0748 62.6224
L180.2176 62.5748
" />
<path d="M180.2176 62.5748
L180.3129 62.5748
" />
<path d="M180.3129 62.5748
L180.4557 62.6224
" />
<path d="M180.4557 62.6224
L180.5033 62.6701
" />
<path d="M181.4557 63.5748
L180.8843 63.5748
" />
<path d="M181.1700 63.5748
L181.1700 62.5748
" />
<path d="M181.1700 62.5748
L181.0748 62.7177
" />
<path d="M181.0748 62.7177
L180.9795 62.8129
" />
<path d="M180.9795 62.8129
L180.8843 62.8605
" />
</g><g transform="rotate(-90.000000 191.0600 41.4000)">
<text x="191.0600" y="41.9000"
textLength="3.0595" font-size="1.3333" lengthAdjust="spacingAndGlyphs"
text-anchor="middle" opacity="0" stroke-opacity="0">RV4</text>
</g>
<g class="stroked-text"><desc>RV4</desc>
<path d="M191.5148 41.9952
L191.0386 42.3286
" />
<path d="M191.5148 42.5667
L190.5148 42.5667
" />
<path d="M190.5148 42.5667
L190.5148 42.1857
" />
<path d="M190.5148 42.1857
L190.5624 42.0905
" />
<path d="M190.5624 42.0905
L190.6101 42.0429
" />
<path d="M190.6101 42.0429
L190.7053 41.9952
" />
<path d="M190.7053 41.9952
L190.8482 41.9952
" />
<path d="M190.8482 41.9952
L190.9434 42.0429
" />
<path d="M190.9434 42.0429
L190.9910 42.0905
" />
<path d="M190.9910 42.0905
L191.0386 42.1857
" />
<path d="M191.0386 42.1857
L191.0386 42.5667
" />
<path d="M190.5148 41.7095
L191.5148 41.3762
" />
<path d="M191.5148 41.3762
L190.5148 41.0429
" />
<path d="M190.8482 40.2810
L191.5148 40.2810
" />
<path d="M190.4672 40.5190
L191.1815 40.7571
" />
<path d="M191.1815 40.7571
L191.1815 40.1381
" />
</g><text x="179.3900" y="60.4400"
textLength="2.2024" font-size="1.3333" lengthAdjust="spacingAndGlyphs"
text-anchor="middle" opacity="0" stroke-opacity="0">R2</text>
<g class="stroked-text"><desc>R2</desc>
<path d="M179.2233 60.3948
L178.8900 59.9186
" />
<path d="M178.6519 60.3948
L178.6519 59.3948
" />
<path d="M178.6519 59.3948
L179.0329 59.3948
" />
<path d="M179.0329 59.3948
L179.1281 59.4424
" />
<path d="M179.1281 59.4424
L179.1757 59.4901
" />
<path d="M179.1757 59.4901
L179.2233 59.5853
" />
<path d="M179.2233 59.5853
L179.2233 59.7282
" />
<path d="M179.2233 59.7282
L179.1757 59.8234
" />
<path d="M179.1757 59.8234
L179.1281 59.8710
" />
<path d="M179.1281 59.8710
L179.0329 59.9186
" />
<path d="M179.0329 59.9186
L178.6519 59.9186
" />
<path d="M179.6043 59.4901
L179.6519 59.4424
" />
<path d="M179.6519 59.4424
L179.7471 59.3948
" />
<path d="M179.7471 59.3948
L179.9852 59.3948
" />
<path d="M179.9852 59.3948
L180.0805 59.4424
" />
<path d="M180.0805 59.4424
L180.1281 59.4901
" />
<path d="M180.1281 59.4901
L180.1757 59.5853
" />
<path d="M180.1757 59.5853
L180.1757 59.6805
" />
<path d="M180.1757 59.6805
L180.1281 59.8234
" />
<path d="M180.1281 59.8234
L179.5567 60.3948
" />
<path d="M179.5567 60.3948
L180.1757 60.3948
" />
</g><g transform="rotate(-90.000000 158.7900 84.2500)">
<text x="158.7900" y="84.7500"
textLength="3.0595" font-size="1.3333" lengthAdjust="spacingAndGlyphs"
text-anchor="middle" opacity="0" stroke-opacity="0">RV2</text>
</g>
<g class="stroked-text"><desc>RV2</desc>
<path d="M159.2448 84.8452
L158.7686 85.1786
" />
<path d="M159.2448 85.4167
L158.2448 85.4167
" />
<path d="M158.2448 85.4167
L158.2448 85.0357
" />
<path d="M158.2448 85.0357
L158.2924 84.9405
" />
<path d="M158.2924 84.9405
L158.3401 84.8929
" />
<path d="M158.3401 84.8929
L158.4353 84.8452
" />
<path d="M158.4353 84.8452
L158.5782 84.8452
" />
<path d="M158.5782 84.8452
L158.6734 84.8929
" />
<path d="M158.6734 84.8929
L158.7210 84.9405
" />
<path d="M158.7210 84.9405
L158.7686 85.0357
" />
<path d="M158.7686 85.0357
L158.7686 85.4167
" />
<path d="M158.2448 84.5595
L159.2448 84.2262
" />
<path d="M159.2448 84.2262
L158.2448 83.8929
" />
<path d="M158.3401 83.6071
L158.2924 83.5595
" />
<path d="M158.2924 83.5595
L158.2448 83.4643
" />
<path d="M158.2448 83.4643
L158.2448 83.2262
" />
<path d="M158.2448 83.2262
L158.2924 83.1310
" />
<path d="M158.2924 83.1310
L158.3401 83.0833
" />
<path d="M158.3401 83.0833
L158.4353 83.0357
" />
<path d="M158.4353 83.0357
L158.5305 83.0357
" />
<path d="M158.5305 83.0357
L158.6734 83.0833
" />
<path d="M158.6734 83.0833
L159.2448 83.6548
" />
<path d="M159.2448 83.6548
L159.2448 83.0357
" />
</g><text x="164.8800" y="55.8900"
textLength="1.9643" font-size="1.3333" lengthAdjust="spacingAndGlyphs"
text-anchor="middle" opacity="0" stroke-opacity="0">J1</text>
<g class="stroked-text"><desc>J1</desc>
<path d="M164.5467 54.8448
L164.5467 55.5591
" />
<path d="M164.5467 55.5591
L164.4990 55.7020
" />
<path d="M164.4990 55.7020
L164.4038 55.7972
" />
<path d="M164.4038 55.7972
L164.2610 55.8448
" />
<path d="M164.2610 55.8448
L164.1657 55.8448
" />
<path d="M165.5467 55.8448
L164.9752 55.8448
" />
<path d="M165.2610 55.8448
L165.2610 54.8448
" />
<path d="M165.2610 54.8448
L165.1657 54.9877
" />
<path d="M165.1657 54.9877
L165.0705 55.0829
" />
<path d="M165.0705 55.0829
L164.9752 55.1305
" />
</g><g transform="rotate(-90.000000 158.6100 41.6300)">
<text x="158.6100" y="42.1300"
textLength="3.0595" font-size="1.3333" lengthAdjust="spacingAndGlyphs"
text-anchor="middle" opacity="0" stroke-opacity="0">RV1</text>
</g>
<g class="stroked-text"><desc>RV1</desc>
<path d="M159.0648 42.2252
L158.5886 42.5586
" />
<path d="M159.0648 42.7967
L158.0648 42.7967
" />
<path d="M158.0648 42.7967
L158.0648 42.4157
" />
<path d="M158.0648 42.4157
L158.1124 42.3205
" />
<path d="M158.1124 42.3205
L158.1601 42.2729
" />
<path d="M158.1601 42.2729
L158.2553 42.2252
" />
<path d="M158.2553 42.2252
L158.3982 42.2252
" />
<path d="M158.3982 42.2252
L158.4934 42.2729
" />
<path d="M158.4934 42.2729
L158.5410 42.3205
" />
<path d="M158.5410 42.3205
L158.5886 42.4157
" />
<path d="M158.5886 42.4157
L158.5886 42.7967
" />
<path d="M158.0648 41.9395
L159.0648 41.6062
" />
<path d="M159.0648 41.6062
L158.0648 41.2729
" />
<path d="M159.0648 40.4157
L159.0648 40.9871
" />
<path d="M159.0648 40.7014
L158.0648 40.7014
" />
<path d="M158.0648 40.7014
L158.2077 40.7967
" />
<path d="M158.2077 40.7967
L158.3029 40.8919
" />
<path d="M158.3029 40.8919
L158.3505 40.9871
" />
</g><g transform="rotate(-90.000000 186.1000 61.0700)">
<text x="186.1000" y="61.5700"
textLength="2.2024" font-size="1.3333" lengthAdjust="spacingAndGlyphs"
text-anchor="middle" opacity="0" stroke-opacity="0">R1</text>
</g>
<g class="stroked-text"><desc>R1</desc>
<path d="M186.5548 61.2367
L186.0786 61.5700
" />
<path d="M186.5548 61.8081
L185.5548 61.8081
" />
<path d="M185.5548 61.8081
L185.5548 61.4271
" />
<path d="M185.5548 61.4271
L185.6024 61.3319
" />
<path d="M185.6024 61.3319
L185.6501 61.2843
" />
<path d="M185.6501 61.2843
L185.7453 61.2367
" />
<path d="M185.7453 61.2367
L185.8882 61.2367
" />
<path d="M185.8882 61.2367
L185.9834 61.2843
" />
<path d="M185.9834 61.2843
L186.0310 61.3319
" />
<path d="M186.0310 61.3319
L186.0786 61.4271
" />
<path d="M186.0786 61.4271
L186.0786 61.8081
" />
<path d="M186.5548 60.2843
L186.5548 60.8557
" />
<path d="M186.5548 60.5700
L185.5548 60.5700
" />
<path d="M185.5548 60.5700
L185.6977 60.6652
" />
<path d="M185.6977 60.6652
L185.7929 60.7605
" />
<path d="M185.7929 60.7605
L185.8405 60.8557
" />
</g><text x="182.8450" y="46.5500"
textLength="2.2024" font-size="1.3333" lengthAdjust="spacingAndGlyphs"
text-anchor="middle" opacity="0" stroke-opacity="0">D2</text>
<g class="stroked-text"><desc>D2</desc>
<path d="M182.1069 46.5048
L182.1069 45.5048
" />
<path d="M182.1069 45.5048
L182.3450 45.5048
" />
<path d="M182.3450 45.5048
L182.4879 45.5524
" />
<path d="M182.4879 45.5524
L182.5831 45.6477
" />
<path d="M182.5831 45.6477
L182.6307 45.7429
" />
<path d="M182.6307 45.7429
L182.6783 45.9334
" />
<path d="M182.6783 45.9334
L182.6783 46.0762
" />
<path d="M182.6783 46.0762
L182.6307 46.2667
" />
<path d="M182.6307 46.2667
L182.5831 46.3620
" />
<path d="M182.5831 46.3620
L182.4879 46.4572
" />
<path d="M182.4879 46.4572
L182.3450 46.5048
" />
<path d="M182.3450 46.5048
L182.1069 46.5048
" />
<path d="M183.0593 45.6001
L183.1069 45.5524
" />
<path d="M183.1069 45.5524
L183.2021 45.5048
" />
<path d="M183.2021 45.5048
L183.4402 45.5048
" />
<path d="M183.4402 45.5048
L183.5355 45.5524
" />
<path d="M183.5355 45.5524
L183.5831 45.6001
" />
<path d="M183.5831 45.6001
L183.6307 45.6953
" />
<path d="M183.6307 45.6953
L183.6307 45.7905
" />
<path d="M183.6307 45.7905
L183.5831 45.9334
" />
<path d="M183.5831 45.9334
L183.0117 46.5048
" />
<path d="M183.0117 46.5048
L183.6307 46.5048
" />
</g><g transform="rotate(-90.000000 191.4100 84.1900)">
<text x="191.4100" y="84.6900"
textLength="3.0595" font-size="1.3333" lengthAdjust="spacingAndGlyphs"
text-anchor="middle" opacity="0" stroke-opacity="0">RV3</text>
</g>
<g class="stroked-text"><desc>RV3</desc>
<path d="M191.8648 84.7852
L191.3886 85.1186
" />
<path d="M191.8648 85.3567
L190.8648 85.3567
" />
<path d="M190.8648 85.3567
L190.8648 84.9757
" />
<path d="M190.8648 84.9757
L190.9124 84.8805
" />
<path d="M190.9124 84.8805
L190.9601 84.8329
" />
<path d="M190.9601 84.8329
L191.0553 84.7852
" />
<path d="M191.0553 84.7852
L191.1982 84.7852
" />
<path d="M191.1982 84.7852
L191.2934 84.8329
" />
<path d="M191.2934 84.8329
L191.3410 84.8805
" />
<path d="M191.3410 84.8805
L191.3886 84.9757
" />
<path d="M191.3886 84.9757
L191.3886 85.3567
" />
<path d="M190.8648 84.4995
L191.8648 84.1662
" />
<path d="M191.8648 84.1662
L190.8648 83.8329
" />
<path d="M190.8648 83.5948
L190.8648 82.9757
" />
<path d="M190.8648 82.9757
L191.2458 83.3090
" />
<path d="M191.2458 83.3090
L191.2458 83.1662
" />
<path d="M191.2458 83.1662
L191.2934 83.0710
" />
<path d="M191.2934 83.0710
L191.3410 83.0233
" />
<path d="M191.3410 83.0233
L191.4362 82.9757
" />
<path d="M191.4362 82.9757
L191.6743 82.9757
" />
<path d="M191.6743 82.9757
L191.7696 83.0233
" />
<path d="M191.7696 83.0233
L191.8172 83.0710
" />
<path d="M191.8172 83.0710
L191.8648 83.1662
" />
<path d="M191.8648 83.1662
L191.8648 83.4519
" />
<path d="M191.8648 83.4519
L191.8172 83.5471
" />
<path d="M191.8172 83.5471
L191.7696 83.5948
" />
</g><path d="M170.1100 63.5000
L173.6500 63.5000
" />
<path d="M170.1100 73.6600
L170.1100 63.5000
" />
<path d="M173.6500 63.5000
L173.6500 73.6600
" />
<path d="M173.6500 73.6600
L170.1100 73.6600
" />
</g>
<g style="fill:none; 
stroke:#000000; stroke-width:0.3000; stroke-opacity:1; 
stroke-linecap:round; stroke-linejoin:round;">
<circle cx="169.0100" cy="63.4000" r="0.1500" /> 
<circle cx="170.8600" cy="64.1300" r="0.1500" /> 
</g>
<g style="fill:none; 
stroke:#000000; stroke-width:0.1200; stroke-opacity:1; 
stroke-linecap:round; stroke-linejoin:round;">
<path d="M178.4600 65.6687
L178.4600 66.1913
" />
<path d="M179.9300 65.6687
L179.9300 66.1913
" />
<path d="M181.1600 59.4750
L185.0450 59.4750
" />
<path d="M185.0450 57.2050
L181.1600 57.2050
" />
<path d="M185.0450 59.4750
L185.0450 57.2050
" />
<path d="M167.5550 58.0900
L167.5550 59.2900
" />
<path d="M167.5550 60.8900
L167.5550 62.0900
" />
<path d="M167.5550 62.0900
L173.9550 62.0900
" />
<path d="M173.9550 58.0900
L167.5550 58.0900
" />
<path d="M173.9550 59.2900
L173.9550 58.0900
" />
<path d="M173.9550 62.0900
L173.9550 60.8900
" />
<path d="M176.2650 65.8344
L176.2650 66.1156
" />
<path d="M177.2850 65.8344
L177.2850 66.1156
" />
<path d="M177.9800 55.7200
L177.9800 55.1200
" />
<path d="M178.6800 54.4200
L180.0800 54.4200
" />
<path d="M180.0800 56.4200
L178.6800 56.4200
" />
<path d="M180.7800 55.1200
L180.7800 55.7200
" />
<path d="M178.6800 54.4200 A0.7000 0.7000 0.0 0 0 177.9800 55.1200" />
<path d="M177.9800 55.7200 A0.7000 0.7000 0.0 0 0 178.6800 56.4200" />
<path d="M180.7800 55.1200 A0.7000 0.7000 0.0 0 0 180.0800 54.4200" />
<path d="M180.0800 56.4200 A0.7000 0.7000 0.0 0 0 180.7800 55.7200" />
<path d="M177.5194 62.7400
L177.8006 62.7400
" />
<path d="M177.5194 63.7600
L177.8006 63.7600
" />
<path d="M182.8150 41.6700
L182.8150 52.5800
" />
<path d="M182.8150 52.5800
L199.9350 52.5800
" />
<path d="M199.9350 41.6700
L199.9350 52.5800
" />
<circle cx="191.3750" cy="41.6700" r="8.5600" /> 
<path d="M176.4450 60.3471
L176.4450 58.8929
" />
<path d="M178.2650 60.3471
L178.2650 58.8929
" />
<path d="M150.2150 84.2700
L150.2150 73.3600
" />
<path d="M167.3350 73.3600
L150.2150 73.3600
" />
<path d="M167.3350 84.2700
L167.3350 73.3600
" />
<circle cx="158.7750" cy="84.2700" r="8.5600" /> 
<path d="M166.7050 54.0100
L166.7050 56.6700
" />
<path d="M174.3850 54.0100
L166.7050 54.0100
" />
<path d="M174.3850 54.0100
L174.3850 56.6700
" />
<path d="M174.3850 56.6700
L166.7050 56.6700
" />
<path d="M176.9850 55.3400
L176.9850 56.6700
" />
<path d="M176.9850 56.6700
L175.6550 56.6700
" />
<path d="M150.2150 41.6700
L150.2150 52.5800
" />
<path d="M150.2150 52.5800
L167.3350 52.5800
" />
<path d="M167.3350 41.6700
L167.3350 52.5800
" />
<circle cx="158.7750" cy="41.6700" r="8.5600" /> 
<path d="M183.3300 61.2154
L183.3300 62.6696
" />
<path d="M185.1500 61.2154
L185.1500 62.6696
" />
<path d="M186.3500 47.3200
L179.3400 47.3200
" />
<path d="M186.3500 50.6200
L179.3400 50.6200
" />
<path d="M186.3500 50.6200
L186.3500 47.3200
" />
<path d="M182.8150 84.2700
L182.8150 73.3600
" />
<path d="M199.9350 73.3600
L182.8150 73.3600
" />
<path d="M199.9350 84.2700
L199.9350 73.3600
" />
<circle cx="191.3750" cy="84.2700" r="8.5600" /> 
</g>
<g style="fill:#000000; fill-opacity:1.0000; stroke:none;">
<circle cx="196.3750" cy="54.2200" r="0.6500" /> 
</g>
<g style="fill:#000000; fill-opacity:1.0000; stroke:none;">
<circle cx="191.3750" cy="54.2200" r="0.6500" /> 
</g>
<g style="fill:#000000; fill-opacity:1.0000; stroke:none;">
<circle cx="186.3750" cy="54.2200" r="0.6500" /> 
</g>
<g style="fill:#000000; fill-opacity:1.0000; stroke:none;">
<circle cx="153.7750" cy="71.7200" r="0.6500" /> 
</g>
<g style="fill:#000000; fill-opacity:1.0000; stroke:none;">
<circle cx="158.7750" cy="71.7200" r="0.6500" /> 
</g>
<g style="fill:#000000; fill-opacity:1.0000; stroke:none;">
<circle cx="163.7750" cy="71.7200" r="0.6500" /> 
</g>
<g style="fill:#000000; fill-opacity:1.0000; stroke:none;">
<circle cx="175.6550" cy="55.3400" r="0.5000" /> 
</g>
<g style="fill:#000000; fill-opacity:1.0000; stroke:none;">
<circle cx="173.1150" cy="55.3400" r="0.5000" /> 
</g>
<g style="fill:#000000; fill-opacity:1.0000; stroke:none;">
<circle cx="170.5750" cy="55.3400" r="0.5000" /> 
</g>
<g style="fill:#000000; fill-opacity:1.0000; stroke:none;">
<circle cx="168.0350" cy="55.3400" r="0.5000" /> 
</g>
<g style="fill:#000000; fill-opacity:1.0000; stroke:none;">
<circle cx="163.7750" cy="54.2200" r="0.6500" /> 
</g>
<g style="fill:#000000; fill-opacity:1.0000; stroke:none;">
<circle cx="158.7750" cy="54.2200" r="0.6500" /> 
</g>
<g style="fill:#000000; fill-opacity:1.0000; stroke:none;">
<circle cx="153.7750" cy="54.2200" r="0.6500" /> 
</g>
<g style="fill:#000000; fill-opacity:1.0000; stroke:none;">
<circle cx="186.3750" cy="71.7200" r="0.6500" /> 
</g>
<g style="fill:#000000; fill-opacity:1.0000; stroke:none;">
<circle cx="191.3750" cy="71.7200" r="0.6500" /> 
</g>
<g style="fill:#000000; fill-opacity:1.0000; stroke:none;">
<circle cx="196.3750" cy="71.7200" r="0.6500" /> 
</g>
<g style="fill:#FFFFFF; fill-opacity:1.0000; stroke:none;">
<circle cx="196.3750" cy="54.2200" r="0.6500" /> 
</g>
<g style="fill:#FFFFFF; fill-opacity:1.0000; stroke:none;">
<circle cx="191.3750" cy="54.2200" r="0.6500" /> 
</g>
<g style="fill:#FFFFFF; fill-opacity:1.0000; stroke:none;">
<circle cx="186.3750" cy="54.2200" r="0.6500" /> 
</g>
<g style="fill:#FFFFFF; fill-opacity:1.0000; stroke:none;">
<circle cx="153.7750" cy="71.7200" r="0.6500" /> 
</g>
<g style="fill:#FFFFFF; fill-opacity:1.0000; stroke:none;">
<circle cx="158.7750" cy="71.7200" r="0.6500" /> 
</g>
<g style="fill:#FFFFFF; fill-opacity:1.0000; stroke:none;">
<circle cx="163.7750" cy="71.7200" r="0.6500" /> 
</g>
<g style="fill:#FFFFFF; fill-opacity:1.0000; stroke:none;">
<circle cx="175.6550" cy="55.3400" r="0.5000" /> 
</g>
<g style="fill:#FFFFFF; fill-opacity:1.0000; stroke:none;">
<circle cx="173.1150" cy="55.3400" r="0.5000" /> 
</g>
<g style="fill:#FFFFFF; fill-opacity:1.0000; stroke:none;">
<circle cx="170.5750" cy="55.3400" r="0.5000" /> 
</g>
<g style="fill:#FFFFFF; fill-opacity:1.0000; stroke:none;">
<circle cx="168.0350" cy="55.3400" r="0.5000" /> 
</g>
<g style="fill:#FFFFFF; fill-opacity:1.0000; stroke:none;">
<circle cx="163.7750" cy="54.2200" r="0.6500" /> 
</g>
<g style="fill:#FFFFFF; fill-opacity:1.0000; stroke:none;">
<circle cx="158.7750" cy="54.2200" r="0.6500" /> 
</g>
<g style="fill:#FFFFFF; fill-opacity:1.0000; stroke:none;">
<circle cx="153.7750" cy="54.2200" r="0.6500" /> 
</g>
<g style="fill:#FFFFFF; fill-opacity:1.0000; stroke:none;">
<circle cx="186.3750" cy="71.7200" r="0.6500" /> 
</g>
<g style="fill:#FFFFFF; fill-opacity:1.0000; stroke:none;">
<circle cx="191.3750" cy="71.7200" r="0.6500" /> 
</g>
<g style="fill:#FFFFFF; fill-opacity:1.0000; stroke:none;">
<circle cx="196.3750" cy="71.7200" r="0.6500" /> 
</g> 
</svg>
