<?xml version="1.0" standalone="no"?>
 <!DOCTYPE svg PUBLIC "-//W3C//DTD SVG 1.1//EN" 
 "http://www.w3.org/Graphics/SVG/1.1/DTD/svg11.dtd"> 
<svg
  xmlns:svg="http://www.w3.org/2000/svg"
  xmlns="http://www.w3.org/2000/svg"
  xmlns:xlink="http://www.w3.org/1999/xlink"
  version="1.1"
  width="297.0022mm" height="210.0072mm" viewBox="0.0000 0.0000 297.0022 210.0072">
<title>SVG Image created as simpleCh552-F_Mask.svg date 2026/01/02 19:29:18 </title>
  <desc>Image generated by PCBNEW </desc>
<g style="fill:#000000; fill-opacity:1.0000;stroke:#000000; stroke-opacity:1.0000;
stroke-linecap:round; stroke-linejoin:round;"
 transform="translate(0 0) scale(1 1)">
<path style="fill:#000000; fill-opacity:1.0000; stroke:none;fill-rule:evenodd;"
d="M 179.5300,56.1700
179.2300,56.1700
179.2300,54.6700
179.5300,54.6700
Z" /> 
</g>
<g style="fill:none; 
stroke:#000000; stroke-width:0.5600; stroke-opacity:1; 
stroke-linecap:round; stroke-linejoin:round;">
<path d="M169.6050 64.1300
L168.4150 64.1300
" />
<path d="M169.6050 65.4000
L168.4150 65.4000
" />
<path d="M169.6050 66.6700
L168.4150 66.6700
" />
<path d="M169.6050 67.9500
L168.4150 67.9500
" />
<path d="M169.6050 69.2100
L168.4150 69.2100
" />
<path d="M169.6050 70.4800
L168.4150 70.4800
" />
<path d="M169.6050 71.7500
L168.4150 71.7500
" />
<path d="M169.6050 73.0200
L168.4150 73.0200
" />
<path d="M175.3450 73.0200
L174.1550 73.0200
" />
<path d="M175.3450 71.7500
L174.1550 71.7500
" />
<path d="M175.3450 70.4800
L174.1550 70.4800
" />
<path d="M175.3450 69.2100
L174.1550 69.2100
" />
<path d="M175.3450 67.9500
L174.1550 67.9500
" />
<path d="M175.3450 66.6700
L174.1550 66.6700
" />
<path d="M175.3450 65.4000
L174.1550 65.4000
" />
<path d="M175.3450 64.1300
L174.1550 64.1300
" />
<path style="fill:#000000; fill-opacity:1.0000; stroke:none;fill-rule:evenodd;"
d="M 179.6700,64.4800
179.7657,64.4990
179.8468,64.5532
179.9010,64.6343
179.9200,64.7300
179.9200,65.2300
179.9010,65.3257
179.8468,65.4068
179.7657,65.4610
179.6700,65.4800
178.7200,65.4800
178.6243,65.4610
178.5432,65.4068
178.4890,65.3257
178.4700,65.2300
178.4700,64.7300
178.4890,64.6343
178.5432,64.5532
178.6243,64.4990
178.7200,64.4800
Z" /> 
<path style="fill:#000000; fill-opacity:1.0000; stroke:none;fill-rule:evenodd;"
d="M 179.6700,66.3800
179.7657,66.3990
179.8468,66.4532
179.9010,66.5343
179.9200,66.6300
179.9200,67.1300
179.9010,67.2257
179.8468,67.3068
179.7657,67.3610
179.6700,67.3800
178.7200,67.3800
178.6243,67.3610
178.5432,67.3068
178.4890,67.2257
178.4700,67.1300
178.4700,66.6300
178.4890,66.5343
178.5432,66.4532
178.6243,66.3990
178.7200,66.3800
Z" /> 
<path style="fill:#000000; fill-opacity:1.0000; stroke:none;fill-rule:evenodd;"
d="M 184.7850,58.9650
184.7660,59.0607
184.7118,59.1418
184.6307,59.1960
184.5350,59.2150
183.7850,59.2150
183.6893,59.1960
183.6082,59.1418
183.5540,59.0607
183.5350,58.9650
183.5350,57.7150
183.5540,57.6193
183.6082,57.5382
183.6893,57.4840
183.7850,57.4650
184.5350,57.4650
184.6307,57.4840
184.7118,57.5382
184.7660,57.6193
184.7850,57.7150
Z" /> 
<path style="fill:#000000; fill-opacity:1.0000; stroke:none;fill-rule:evenodd;"
d="M 181.9850,58.9650
181.9660,59.0607
181.9118,59.1418
181.8307,59.1960
181.7350,59.2150
180.9850,59.2150
180.8893,59.1960
180.8082,59.1418
180.7540,59.0607
180.7350,58.9650
180.7350,57.7150
180.7540,57.6193
180.8082,57.5382
180.8893,57.4840
180.9850,57.4650
181.7350,57.4650
181.8307,57.4840
181.9118,57.5382
181.9660,57.6193
181.9850,57.7150
Z" /> 
<path style="fill:#000000; fill-opacity:1.0000; stroke:none;fill-rule:evenodd;"
d="M 166.2550,60.5900
166.2550,59.5900
167.5050,59.5900
167.5050,60.5900
Z" /> 
<path style="fill:#000000; fill-opacity:1.0000; stroke:none;fill-rule:evenodd;"
d="M 174.0050,60.5900
174.0050,59.5900
175.2550,59.5900
175.2550,60.5900
Z" /> 
<path style="fill:#000000; fill-opacity:1.0000; stroke:none;fill-rule:evenodd;"
d="M 177.0250,64.7500
177.1111,64.7671
177.1841,64.8159
177.2329,64.8889
177.2500,64.9750
177.2500,65.4250
177.2329,65.5111
177.1841,65.5841
177.1111,65.6329
177.0250,65.6500
176.5250,65.6500
176.4389,65.6329
176.3659,65.5841
176.3171,65.5111
176.3000,65.4250
176.3000,64.9750
176.3171,64.8889
176.3659,64.8159
176.4389,64.7671
176.5250,64.7500
Z" /> 
<path style="fill:#000000; fill-opacity:1.0000; stroke:none;fill-rule:evenodd;"
d="M 177.0250,66.3000
177.1111,66.3171
177.1841,66.3659
177.2329,66.4389
177.2500,66.5250
177.2500,66.9750
177.2329,67.0611
177.1841,67.1341
177.1111,67.1829
177.0250,67.2000
176.5250,67.2000
176.4389,67.1829
176.3659,67.1341
176.3171,67.0611
176.3000,66.9750
176.3000,66.5250
176.3171,66.4389
176.3659,66.3659
176.4389,66.3171
176.5250,66.3000
Z" /> 
<path style="fill:#000000; fill-opacity:1.0000; stroke:none;fill-rule:evenodd;"
d="M 179.2300,56.1700
178.7300,56.1700
178.7300,56.1657
178.6647,56.1657
178.5387,56.1319
178.4256,56.0667
178.3333,55.9744
178.2681,55.8613
178.2343,55.7353
178.2343,55.6700
178.2300,55.6700
178.2300,55.1700
178.2343,55.1700
178.2343,55.1047
178.2681,54.9787
178.3333,54.8656
178.4256,54.7733
178.5387,54.7081
178.6647,54.6743
178.7300,54.6743
178.7300,54.6700
179.2300,54.6700
Z" /> 
<path style="fill:#000000; fill-opacity:1.0000; stroke:none;fill-rule:evenodd;"
d="M 180.0300,54.6743
180.0953,54.6743
180.2213,54.7081
180.3344,54.7733
180.4267,54.8656
180.4919,54.9787
180.5257,55.1047
180.5257,55.1700
180.5300,55.1700
180.5300,55.6700
180.5257,55.6700
180.5257,55.7353
180.4919,55.8613
180.4267,55.9744
180.3344,56.0667
180.2213,56.1319
180.0953,56.1657
180.0300,56.1657
180.0300,56.1700
179.5300,56.1700
179.5300,54.6700
180.0300,54.6700
Z" /> 
<path style="fill:#000000; fill-opacity:1.0000; stroke:none;fill-rule:evenodd;"
d="M 176.4350,63.0000
176.4521,62.9139
176.5009,62.8409
176.5739,62.7921
176.6600,62.7750
177.1100,62.7750
177.1961,62.7921
177.2691,62.8409
177.3179,62.9139
177.3350,63.0000
177.3350,63.5000
177.3179,63.5861
177.2691,63.6591
177.1961,63.7079
177.1100,63.7250
176.6600,63.7250
176.5739,63.7079
176.5009,63.6591
176.4521,63.5861
176.4350,63.5000
Z" /> 
<path style="fill:#000000; fill-opacity:1.0000; stroke:none;fill-rule:evenodd;"
d="M 177.9850,63.0000
178.0021,62.9139
178.0509,62.8409
178.1239,62.7921
178.2100,62.7750
178.6600,62.7750
178.7461,62.7921
178.8191,62.8409
178.8679,62.9139
178.8850,63.0000
178.8850,63.5000
178.8679,63.5861
178.8191,63.6591
178.7461,63.7079
178.6600,63.7250
178.2100,63.7250
178.1239,63.7079
178.0509,63.6591
178.0021,63.5861
177.9850,63.5000
Z" /> 
</g>
<g style="fill:#000000; fill-opacity:1.0000; stroke:none;">
<circle cx="196.3750" cy="54.2200" r="1.1700" /> 
</g>
<g style="fill:#000000; fill-opacity:1.0000; stroke:none;">
<circle cx="191.3750" cy="54.2200" r="1.1700" /> 
</g>
<g style="fill:#000000; fill-opacity:1.0000; stroke:none;">
<circle cx="186.3750" cy="54.2200" r="1.1700" /> 
<path style="fill:#000000; fill-opacity:1.0000; stroke:none;fill-rule:evenodd;"
d="M 176.7300,61.6450
176.6343,61.6260
176.5532,61.5718
176.4990,61.4907
176.4800,61.3950
176.4800,60.7700
176.4990,60.6743
176.5532,60.5932
176.6343,60.5390
176.7300,60.5200
177.9800,60.5200
178.0757,60.5390
178.1568,60.5932
178.2110,60.6743
178.2300,60.7700
178.2300,61.3950
178.2110,61.4907
178.1568,61.5718
178.0757,61.6260
177.9800,61.6450
Z" /> 
<path style="fill:#000000; fill-opacity:1.0000; stroke:none;fill-rule:evenodd;"
d="M 176.7300,58.7200
176.6343,58.7010
176.5532,58.6468
176.4990,58.5657
176.4800,58.4700
176.4800,57.8450
176.4990,57.7493
176.5532,57.6682
176.6343,57.6140
176.7300,57.5950
177.9800,57.5950
178.0757,57.6140
178.1568,57.6682
178.2110,57.7493
178.2300,57.8450
178.2300,58.4700
178.2110,58.5657
178.1568,58.6468
178.0757,58.7010
177.9800,58.7200
Z" /> 
</g>
<g style="fill:#000000; fill-opacity:1.0000; stroke:none;">
<circle cx="153.7750" cy="71.7200" r="1.1700" /> 
</g>
<g style="fill:#000000; fill-opacity:1.0000; stroke:none;">
<circle cx="158.7750" cy="71.7200" r="1.1700" /> 
</g>
<g style="fill:#000000; fill-opacity:1.0000; stroke:none;">
<circle cx="163.7750" cy="71.7200" r="1.1700" /> 
<path style="fill:#000000; fill-opacity:1.0000; stroke:none;fill-rule:evenodd;"
d="M 174.8050,54.4900
176.5050,54.4900
176.5050,56.1900
174.8050,56.1900
Z" /> 
</g>
<g style="fill:#000000; fill-opacity:1.0000; stroke:none;">
<circle cx="173.1150" cy="55.3400" r="0.8500" /> 
</g>
<g style="fill:#000000; fill-opacity:1.0000; stroke:none;">
<circle cx="170.5750" cy="55.3400" r="0.8500" /> 
</g>
<g style="fill:#000000; fill-opacity:1.0000; stroke:none;">
<circle cx="168.0350" cy="55.3400" r="0.8500" /> 
</g>
<g style="fill:#000000; fill-opacity:1.0000; stroke:none;">
<circle cx="163.7750" cy="54.2200" r="1.1700" /> 
</g>
<g style="fill:#000000; fill-opacity:1.0000; stroke:none;">
<circle cx="158.7750" cy="54.2200" r="1.1700" /> 
</g>
<g style="fill:#000000; fill-opacity:1.0000; stroke:none;">
<circle cx="153.7750" cy="54.2200" r="1.1700" /> 
<path style="fill:#000000; fill-opacity:1.0000; stroke:none;fill-rule:evenodd;"
d="M 184.8650,59.9175
184.9607,59.9365
185.0418,59.9907
185.0960,60.0718
185.1150,60.1675
185.1150,60.7925
185.0960,60.8882
185.0418,60.9693
184.9607,61.0235
184.8650,61.0425
183.6150,61.0425
183.5193,61.0235
183.4382,60.9693
183.3840,60.8882
183.3650,60.7925
183.3650,60.1675
183.3840,60.0718
183.4382,59.9907
183.5193,59.9365
183.6150,59.9175
Z" /> 
<path style="fill:#000000; fill-opacity:1.0000; stroke:none;fill-rule:evenodd;"
d="M 184.8650,62.8425
184.9607,62.8615
185.0418,62.9157
185.0960,62.9968
185.1150,63.0925
185.1150,63.7175
185.0960,63.8132
185.0418,63.8943
184.9607,63.9485
184.8650,63.9675
183.6150,63.9675
183.5193,63.9485
183.4382,63.8943
183.3840,63.8132
183.3650,63.7175
183.3650,63.0925
183.3840,62.9968
183.4382,62.9157
183.5193,62.8615
183.6150,62.8425
Z" /> 
<path style="fill:#000000; fill-opacity:1.0000; stroke:none;fill-rule:evenodd;"
d="M 186.0900,49.6200
186.0710,49.7157
186.0168,49.7968
185.9357,49.8510
185.8400,49.8700
182.8400,49.8700
182.7443,49.8510
182.6632,49.7968
182.6090,49.7157
182.5900,49.6200
182.5900,48.3200
182.6090,48.2243
182.6632,48.1432
182.7443,48.0890
182.8400,48.0700
185.8400,48.0700
185.9357,48.0890
186.0168,48.1432
186.0710,48.2243
186.0900,48.3200
Z" /> 
<path style="fill:#000000; fill-opacity:1.0000; stroke:none;fill-rule:evenodd;"
d="M 181.0900,49.6200
181.0710,49.7157
181.0168,49.7968
180.9357,49.8510
180.8400,49.8700
177.8400,49.8700
177.7443,49.8510
177.6632,49.7968
177.6090,49.7157
177.5900,49.6200
177.5900,48.3200
177.6090,48.2243
177.6632,48.1432
177.7443,48.0890
177.8400,48.0700
180.8400,48.0700
180.9357,48.0890
181.0168,48.1432
181.0710,48.2243
181.0900,48.3200
Z" /> 
</g>
<g style="fill:#000000; fill-opacity:1.0000; stroke:none;">
<circle cx="186.3750" cy="71.7200" r="1.1700" /> 
</g>
<g style="fill:#000000; fill-opacity:1.0000; stroke:none;">
<circle cx="191.3750" cy="71.7200" r="1.1700" /> 
</g>
<g style="fill:#000000; fill-opacity:1.0000; stroke:none;">
<circle cx="196.3750" cy="71.7200" r="1.1700" /> 
</g>
<g style="fill:#FFFFFF; fill-opacity:1.0000; stroke:none;">
<circle cx="196.3750" cy="54.2200" r="0.6500" /> 
</g>
<g style="fill:#FFFFFF; fill-opacity:1.0000; stroke:none;">
<circle cx="191.3750" cy="54.2200" r="0.6500" /> 
</g>
<g style="fill:#FFFFFF; fill-opacity:1.0000; stroke:none;">
<circle cx="186.3750" cy="54.2200" r="0.6500" /> 
</g>
<g style="fill:#FFFFFF; fill-opacity:1.0000; stroke:none;">
<circle cx="153.7750" cy="71.7200" r="0.6500" /> 
</g>
<g style="fill:#FFFFFF; fill-opacity:1.0000; stroke:none;">
<circle cx="158.7750" cy="71.7200" r="0.6500" /> 
</g>
<g style="fill:#FFFFFF; fill-opacity:1.0000; stroke:none;">
<circle cx="163.7750" cy="71.7200" r="0.6500" /> 
</g>
<g style="fill:#FFFFFF; fill-opacity:1.0000; stroke:none;">
<circle cx="175.6550" cy="55.3400" r="0.5000" /> 
</g>
<g style="fill:#FFFFFF; fill-opacity:1.0000; stroke:none;">
<circle cx="173.1150" cy="55.3400" r="0.5000" /> 
</g>
<g style="fill:#FFFFFF; fill-opacity:1.0000; stroke:none;">
<circle cx="170.5750" cy="55.3400" r="0.5000" /> 
</g>
<g style="fill:#FFFFFF; fill-opacity:1.0000; stroke:none;">
<circle cx="168.0350" cy="55.3400" r="0.5000" /> 
</g>
<g style="fill:#FFFFFF; fill-opacity:1.0000; stroke:none;">
<circle cx="163.7750" cy="54.2200" r="0.6500" /> 
</g>
<g style="fill:#FFFFFF; fill-opacity:1.0000; stroke:none;">
<circle cx="158.7750" cy="54.2200" r="0.6500" /> 
</g>
<g style="fill:#FFFFFF; fill-opacity:1.0000; stroke:none;">
<circle cx="153.7750" cy="54.2200" r="0.6500" /> 
</g>
<g style="fill:#FFFFFF; fill-opacity:1.0000; stroke:none;">
<circle cx="186.3750" cy="71.7200" r="0.6500" /> 
</g>
<g style="fill:#FFFFFF; fill-opacity:1.0000; stroke:none;">
<circle cx="191.3750" cy="71.7200" r="0.6500" /> 
</g>
<g style="fill:#FFFFFF; fill-opacity:1.0000; stroke:none;">
<circle cx="196.3750" cy="71.7200" r="0.6500" /> 
</g> 
</svg>
